<svg xmlns="http://www.w3.org/2000/svg" xmlns:xlink="http://www.w3.org/1999/xlink" viewBox="0 0 93.33 60.33"><defs><style>.cls-1,.cls-11,.cls-19,.cls-26,.cls-40,.cls-42,.cls-43,.cls-44,.cls-45,.cls-46{fill:none;}.cls-2{isolation:isolate;}.cls-3{fill:#9fa0a0;}.cls-4{clip-path:url(#clip-path);}.cls-15,.cls-22,.cls-36,.cls-5,.cls-7{opacity:0.9;}.cls-6{fill:#fbebce;}.cls-7{fill:#f2ca81;}.cls-8{fill:#f5d49a;}.cls-9{fill:#f8e0b6;}.cls-10{fill:#fdf3e3;}.cls-11{stroke:#f7ddaf;}.cls-11,.cls-19,.cls-26,.cls-40{stroke-width:0;}.cls-12{fill:#fffcf7;}.cls-13{mix-blend-mode:multiply;}.cls-14{fill:#d5dde5;}.cls-15{fill:#90acbe;}.cls-16{fill:#a8bcca;}.cls-17{fill:#bfcdd8;}.cls-18{fill:#e6ebf0;}.cls-19{stroke:#bac9d5;}.cls-20{fill:#f7f9fb;}.cls-21{fill:#d5c2c8;}.cls-22{fill:#9b6c7f;}.cls-23{fill:#ad8695;}.cls-24{fill:#c1a5af;}.cls-25{fill:#e6dbdf;}.cls-26{stroke:#bc9ea9;}.cls-27{fill:#f7f4f6;}.cls-28{fill:#e4ebdc;}.cls-29{fill:#eff3eb;}.cls-30{fill:#bdcfab;}.cls-31{fill:#a3be8c;}.cls-32{fill:#d8e2cc;}.cls-33{fill:#ccd9be;}.cls-34{fill:#7aa664;}.cls-35{fill:#ecdcc3;}.cls-36{fill:#d0a76a;}.cls-37{fill:#d9b886;}.cls-38{fill:#e3caa5;}.cls-39{fill:#f4eadb;}.cls-40{stroke:#e1c69e;}.cls-41{fill:#fcf9f4;}.cls-42,.cls-43,.cls-44,.cls-45,.cls-46{stroke:#686868;stroke-miterlimit:10;stroke-width:0.15px;}.cls-43{stroke-dasharray:0.2 0.1;}.cls-44{stroke-dasharray:0.2 0.1;}.cls-45{stroke-dasharray:0.2 0.1;}.cls-46{stroke-dasharray:0.2 0.1;}.cls-47,.cls-48,.cls-49,.cls-50{font-size:6px;font-family:PingFangSC-Regular-GBpc-EUC-H, PingFang SC;}.cls-47{fill:#af7320;}.cls-48{fill:#77a162;}.cls-49{fill:#357b96;}.cls-50{fill:#65204b;}</style><clipPath id="clip-path"><rect class="cls-1" x="20.67" y="9.53" width="40.58" height="40.58"/></clipPath></defs><title>legend1</title><g class="cls-2"><g id="图层_2" data-name="图层 2"><path class="cls-3" d="M61.28,50.14l-20.2.26-10.2.07-10.21,0h-.34v-.33c.06-6.77.19-13.53.2-20.3s-.06-13.52-.08-20.29V9.31h.22L41,9.15c6.77,0,13.53-.06,20.29,0h.42v.41l0,10.22-.11,10.19Zm-.06,0L61,29.71l-.11-10.1,0-10.08.42.42c-6.76,0-13.52,0-20.29,0L20.67,9.76l.22-.23c0,6.77-.12,13.53-.08,20.29s.15,13.53.2,20.3l-.34-.34H30.75l10.09.06Z"/><g class="cls-4"><g class="cls-5"><g class="cls-5"><path class="cls-6" d="M35.46,30.2a6.38,6.38,0,0,0,2.87.53c.81.23.39-.51,0-1.35s-.91-1.73-.53-1.46c1.09.76,6.32,4.16,6.57,4.33s.39,0,.09-.27-.85-.88-1.62-1.58L42,29.64l-.18-.19,0,0h0l-5.46-5.18h0l0,0a5.15,5.15,0,0,1-.52-.55,4.61,4.61,0,0,1-.43-.58l-.12-.21c0-.11,0-.07,0-.08a2.59,2.59,0,0,1,.06.68c0,.24,0-.12,0-.21a1.77,1.77,0,0,1,.09-.38.94.94,0,0,1,.23-.39c.17-.11.29.07.31.52-.07.88.41.37.59.83s.62.27.89.69a1.6,1.6,0,0,0,.72,1.5.89.89,0,0,0,.42-.22c.18-.15.26,0,.39,0a5,5,0,0,1,.2,1.29c.06.43.19.8.51.76s.57-.58.82-1.06A47.28,47.28,0,0,0,43,20.74c.57-1.63.36-1.82.18-2.48-.24-.85,1.18-4,2.5-7,1.07-2.33,2.9-5.9,1.74-6.37a10.79,10.79,0,0,0-2.61,0A3.16,3.16,0,0,1,42.13,3.8,9.17,9.17,0,0,0,37.35.44a5.48,5.48,0,0,0-1-.45,7.19,7.19,0,0,0-1.22-.32,28.59,28.59,0,0,0-4.9.67,4.72,4.72,0,0,0-3.51,2.92c-2.67,2.11-4.5,2.37-5,5,0,.42-.06.84-.07,1.26v.62a1.41,1.41,0,0,0,.13.49c.21.61.42,1.2.6,1.74A6.17,6.17,0,0,1,22.94,15a1.38,1.38,0,0,1-1,1.37,21.94,21.94,0,0,1-3.26-.88c-1.38-.43-1,.65-.32,1.54A17.75,17.75,0,0,1,21,21c0,.31-.69.22-.83.48,0,.81,1.21,2,1.68,2.87.36,2.69,1.7,2.75,1.48,2.78,0,.23-1.39-.08-1.74.18s.34,1,1.09,1.48l2.71,1.65a1.83,1.83,0,0,1,.68.63c.07.2,0,.41-.19.75a6.87,6.87,0,0,0,.67-.33,4.82,4.82,0,0,1,2.86-1.19c1-.16,1.66-.17,1.62-.53-.18-.11-.46-.29-.48-.4s0-.33-.12-.53.89,0,1.93.31A27.3,27.3,0,0,1,35.46,30.2Z"/><path class="cls-7" d="M43.1,18.3c.18.66.39.85-.18,2.48a48,48,0,0,1-2.47,6.07c-.24.48-.63,1.06-.82,1s-.45-.34-.51-.77a5.54,5.54,0,0,0-.2-1.29c-.13,0-.21-.14-.4,0a.87.87,0,0,1-.41.22,1.59,1.59,0,0,1-.72-1.5c-.27-.42-.67-.32-.89-.68s-.65.06-.58-.83c0-.45-.13-.63-.29-.52a1,1,0,0,0-.23.4,1.82,1.82,0,0,0-.09.37,1.64,1.64,0,0,0,0,.23h0v-.08a2,2,0,0,0,0-.23v-.18l0-.16a.87.87,0,0,0,0-.1s0,0,0,.08l.11.22a5.21,5.21,0,0,0,.44.58l.13.15.17.19,1.16,1.1L36.1,24l-.25-.29a3.09,3.09,0,0,1-.36-.45,5.69,5.69,0,0,1-.59-1.08,5.09,5.09,0,0,1-.34-1.23,6.53,6.53,0,0,1,1.86-5.13,12.23,12.23,0,0,1,3.82,1C41.32,17.31,42.27,17.85,43.1,18.3Z"/><path class="cls-8" d="M35.84,23.69a4,4,0,0,0,.29.32l2.29,2.22c.11.17.21.33.28.46.3.49,0,.62-2-1.14a58.46,58.46,0,0,1-4.54-4.9,18.51,18.51,0,0,1-1.48-2,10.36,10.36,0,0,1-1-2.06c-.41-1.32-.32-2.49.26-2.9,0,0,.39-.29,1-.63s1.3-.71,1.81-1a9.88,9.88,0,0,0,1.36.7,2.64,2.64,0,0,0,2.52-.1l.33-.09a7.77,7.77,0,0,1,.84-.21,12.38,12.38,0,0,1,2.44-.24c1.71,0,3.06.41,2.72,1.29a4.57,4.57,0,0,1,.49,1.06,3.26,3.26,0,0,1,0,2.05s-1.66,3.44-1,3.39l-.14.65c-.1.39-.22.92-.35,1.45-.27,1.06-.61,2.17-1.22,2.2,0,0-.24.11-.53.22a5.28,5.28,0,0,1-.84.22s-.17-.24-.37-.58a14.08,14.08,0,0,1-.66-1.25,5.18,5.18,0,0,1-.75-2.53,2.35,2.35,0,0,0-.38-.76,1.71,1.71,0,0,0-1.46-.74,1.58,1.58,0,0,0-1.35,1.83,4.68,4.68,0,0,0,.73,2.14l.19.3.13.19.12.17A2.75,2.75,0,0,0,35.84,23.69Z"/><path class="cls-9" d="M35.9,23.77a2.65,2.65,0,0,0,.2.22,2.51,2.51,0,0,0,.23.21l0,0h0l3.54,3.36h0l0,0,.14.16.25.29c.64.73.89,1.11-.88-.11l-.76-.39-1.89-1a18.84,18.84,0,0,1-4.53-2.87A39.62,39.62,0,0,1,28,18.69c-.48-.71-.93-1.45-1.33-2.19a13.87,13.87,0,0,1-.91-2.24,5.37,5.37,0,0,1,2.29-4.78,1.73,1.73,0,0,0,.44-.5,16.21,16.21,0,0,0,1.12-2.37,6.91,6.91,0,0,1,2.45-1.39A4.79,4.79,0,0,1,34.36,5a2.61,2.61,0,0,1,1.78,1.22l.73.62.74.64.75.76c1,1,1.82,2.09,2.52,2a5.84,5.84,0,0,0,.19,1.1c.11.51.33.93.8.61l-3.7.68c-1,.17-2,.36-2.82.43s-1.55,0-1.93-.6a2,2,0,0,0-.76-.18,2.68,2.68,0,0,0-1.8.61,3.27,3.27,0,0,0-1.12,2.74A8,8,0,0,0,32,20.46s1.25,1.29,2.76,2.61c.75.67,1.56,1.35,2.28,1.91l.52.4.12.09.06.05,0,0h0l-1.37-1.3h0l-.08-.06C36.18,24.07,36.05,23.94,35.9,23.77Z"/><path class="cls-10" d="M43.91,31.4c.71.6,1.57,1.45,2.17,2,.24.21.14.13.25.28s-.35-.17-.66-.35c-1.91-1.21-2.2-.89-4.76-2.22a1.6,1.6,0,0,0-.54-.18l.32.3c0,.17-.23.2-.1.43.34.45-.77,0-2.06-.41a12.5,12.5,0,0,0-1.66-.41c-.94-.21-3.89-1.49-4.51-1.41s-.4.31-.19.58.51.48.11.47a8.88,8.88,0,0,0-.9,0,8.79,8.79,0,0,0-1.16.05,5.59,5.59,0,0,0-2.35.59l-1.49.67c-.37.07-.21-.21-.44-.3-.58-.32,1-.69,1.61-.83s.36-.42.54-.63a3.83,3.83,0,0,1,1-.09c.77,0,.26-.18.07-.43-.41-.35.7-.25.7-.48s-1.37-1.17-.57-1.16c-.76-.05.27-1.07.48-.66-.1-.08.46.11.84.28s.6.29.7.36a31.12,31.12,0,0,0,3.36,1.85,2.65,2.65,0,0,1,1.62.06,9.72,9.72,0,0,0,2.11.69c-.06-.08-.6-.42-.66-.5a4.39,4.39,0,0,0-.57-.65c-.34-.37-.78-.86-1.19-1.37-.84-1-1.55-2.08-1.33-2a6.83,6.83,0,0,1,1.68.94c1.48,1.1,2.24,1.44,3.5,2.31l1.05.79c.92.63,2,1.34,2.21,1.44.63.36.87.38.61.11C43.8,31.44,43.89,31.37,43.91,31.4Z"/><path class="cls-11" d="M46.11,4.83a3.61,3.61,0,0,1-.53.12,3.53,3.53,0,0,1-1.27,0c-1-.17-2.16-.79-3.63-2.75l-.43-.35c-.3-.21-.72-.48-1.18-.74A8,8,0,0,0,37.58.46a2.65,2.65,0,0,0-1.14-.2q-.7-.32-1.44-.6h-.31c-.19,0-.48,0-.85,0a14.55,14.55,0,0,0-2.75.44C29,.63,26.88,1.92,26.75,3.17L25.27,4.28c-.72.56-1.45,1.15-1.78,1.13a2.25,2.25,0,0,0-.36.26,4.7,4.7,0,0,0-.77.89,4.28,4.28,0,0,0-.66,1.68,5.66,5.66,0,0,0-.1,1.13,2.37,2.37,0,0,0,.21,1.24"/><path class="cls-12" d="M41.51,32.36c-.31-.09-2.26-.64-3.36-1a52.19,52.19,0,0,0-5.09-1.48c-.12,0-.17,0,0,.08,1,.5.2.42.71.65.17.09.62.23.53.24a3.94,3.94,0,0,1-.49-.08c-.11,0-.84-.09-1.18-.16a6.76,6.76,0,0,0-1.27-.06,7.4,7.4,0,0,0-.95,0c-.08,0-.39.05-.62.1s-.5.09-.76.16a6.48,6.48,0,0,0-1.5.61c-.27.14-.54.33-.86.46s-.14-.08-.26-.11a5.83,5.83,0,0,1,.71-.47,3.36,3.36,0,0,1,1.13-.59,14,14,0,0,1,1.72-.25,3.63,3.63,0,0,0,.5-.09c.58-.13.87-.23.89-.51-.9-.37-.16-.36-.07-.47a2.07,2.07,0,0,1,.42,0c.14-.07-.18-.36.51-.18,1.55.43,2.87.88,4,1.22.93.26,3.35.93,3.71,1,.62.13.13-.36.51-.36l.3.22c.18.13.4.3.59.47C41.71,32.1,42,32.41,41.51,32.36Z"/></g></g><g class="cls-13"><g class="cls-5"><g class="cls-5"><path class="cls-14" d="M21.88,49.84a2,2,0,0,0,1.08,2c.69.48,1.5.8,1.65,1a2.26,2.26,0,0,0,1.89.38,7.47,7.47,0,0,0,2.4-.87,13.66,13.66,0,0,0,1.83-1.18c.45-.32.73-.47.78-.29a13.06,13.06,0,0,0,1.54,3.2c.79,1.26,1.74,2.36,2.1,2.36,1.81,0,3.1-1.53,3.41-3.69.21-1,0-1.47.33-1.49a21.24,21.24,0,0,1-.69-3.14,1.38,1.38,0,0,1,.12-.53,1.51,1.51,0,0,1,.11-.22l.06-.1.11-.17a2.29,2.29,0,0,0,.56-1.46,16.05,16.05,0,0,0,.3-3.8,3.21,3.21,0,0,0-.13-.83c-.06-.25-.12-.48-.19-.69a4.25,4.25,0,0,0-.43-.86,6.36,6.36,0,0,1-.93-1.41c-.09-.35.07-.57.44-.81s.42-.2.47-.42,0-.44.28-.6a3.08,3.08,0,0,0,.38-.56,1.12,1.12,0,0,1,.48-.49,4.19,4.19,0,0,0,1.62-.53.3.3,0,0,0-.11-.24c-.1-.11.06-.13.07-.2.6,0,1.68.43,1.85.18.05-.06-.11-.35-.43-.59a20.64,20.64,0,0,0-2.36-1.45c-.39-.22-.73-.37-1.18-.58s-.87-.41-1.31-.59a3.74,3.74,0,0,0-3-.06A7,7,0,0,1,32.14,31c-1.21-.18-2.65-.48-4.06-.77-2.13-.5-5.34-1.38-5.72-.13a7.34,7.34,0,0,0,.21,2.32,4.1,4.1,0,0,1-.6,2.79l-.68.79c-.22.23-.4.35-.58.53s-.35.37-.5.51a1.62,1.62,0,0,0-.35.22l-.33.12-.08,0,0,0h0l.26,0,1.72.17c1.21.13,2.43.28,3.67.47l1.87.31a3.18,3.18,0,0,0,.49.07l.31,0a13.53,13.53,0,0,1,2.37.52l.55.13a4.72,4.72,0,0,1,.45.16,3.25,3.25,0,0,1,.37.18l.11,0a.51.51,0,0,1,.16.09s.13.1.07.06a1.13,1.13,0,0,1-.11-.11v0h0L29,36.29l-.21-.23c-.13-.16-.26-.32-.39-.5l-.44-.65a4.24,4.24,0,0,1-.36-.61c-.21-.37.09.2.18.43a2.06,2.06,0,0,1,.18.61c0,.35-.08.41-.26.13a6.48,6.48,0,0,1-.34-1c-.07-.27-.14-.56-.19-.82l0-.19h0v0a4.12,4.12,0,0,1,.07.63.62.62,0,0,0,0,.13v.33c0,.33,0,.64,0,.93A7.74,7.74,0,0,1,27,36.9c-.06.12,0-.4,0-.42A8.47,8.47,0,0,1,26,38.55l-.67.55c-.21.16-.38.29-.52.42s-.39.42-.36.35.54-.94.62-1.16-.49.17-1.07.54a5.71,5.71,0,0,1-2.27.9c-.66.08-1-.2-.75-.75-.19.15-.48.33-.47.39l-.58,1.33a8.65,8.65,0,0,0-.42,1.45,2.87,2.87,0,0,0,0,1.4,1.63,1.63,0,0,0,.72,1,1.78,1.78,0,0,1,.75,0,1.85,1.85,0,0,0,.93.32c.24.1.24.87.21,1.83A18.11,18.11,0,0,1,21.88,49.84Z"/><path class="cls-15" d="M35,31.18a3.72,3.72,0,0,1,3,.06c.43.17.87.37,1.31.58s.78.37,1.17.58a20.64,20.64,0,0,1,2.36,1.45c.32.24.48.53.43.59-.16.24-1.24-.23-1.85-.18,0,.07-.17.09-.06.2a.3.3,0,0,1,.11.24,4,4,0,0,1-1.62.52,1.1,1.1,0,0,0-.47.49,3.27,3.27,0,0,1-.38.56c-.24.17-.22.4-.27.6s-.09.29-.48.42-.52.45-.43.81a5.86,5.86,0,0,0,.93,1.42,4.52,4.52,0,0,1,.43.86c.06.22.12.45.18.7l.09.38c0,.14,0,.3,0,.46a16.06,16.06,0,0,1-.34,3.82,2.4,2.4,0,0,1-.56,1.47,1.84,1.84,0,0,0-.17.25l-.11.21a1.59,1.59,0,0,0-.12.53l-.59-.28c-.39-.19-1-.44-1.63-.84.08-.45.15-.94.19-1.4,0-.24,0-.47,0-.69s0-.22,0-.35l.07-.42a5,5,0,0,0-.43-2.95c-.84-1.6-2.27-2.24-3.55-3.15l0-.87c0-.33,0-.65.08-1a8.24,8.24,0,0,1,.46-2A7.8,7.8,0,0,1,35,31.18Z"/><path class="cls-16" d="M37,46.69a6.42,6.42,0,0,1-.14.81,5,5,0,0,1-.58,1.43c-.56.87-1.39,1.12-2.15-.91,0,0-.13-.68-.37-1.69a36.07,36.07,0,0,0-1.07-3.66,23.65,23.65,0,0,0-1.51-3.51l-.35-.63-.15-.26,0-.06h0l1.06,1.22h0v0a.57.57,0,0,0,.11.12h0a1.4,1.4,0,0,0-.22-.14l-.13-.05a4.08,4.08,0,0,0-.42-.19,3.82,3.82,0,0,0-.8-.23c.05,0-.22-.08-.63-.19s-.13,0-.07,0l.24,0c.16,0,.28-.12.31-.21a.72.72,0,0,0-.32-.54,2.7,2.7,0,0,1-.34-.64,3.63,3.63,0,0,1-.29-.82,5.12,5.12,0,0,1-.21-1.17A6.7,6.7,0,0,1,29,33.2c.18-.52.43-.87.84-.81a7.09,7.09,0,0,1,1.05-.76,3.81,3.81,0,0,1,2.16-.5s.83.23,1.68.41,1.73.31,1.89,0a12,12,0,0,1,2.27.49c1,.3,1.82.69,1.59,1a4.79,4.79,0,0,1,0,.79,9.25,9.25,0,0,0-2.15.8c-1.1.54-2,1.45-2.47,1.44l-.19.16a3.19,3.19,0,0,0-.41.48,3,3,0,0,0-.51,1.81,8.49,8.49,0,0,0,.86,2.65,12.29,12.29,0,0,1,.6,2.37c.1.46.11,1.07.25,1.56S36.78,46.13,37,46.69Z"/><path class="cls-17" d="M37.6,47.72a6.85,6.85,0,0,1-.14,2.52c-.33,1.17-1.21,2-2.57.69a8.72,8.72,0,0,1-2.48-1.58,5.49,5.49,0,0,1-2-3.94s0-.68,0-1.7A24.68,24.68,0,0,0,30.05,40a14,14,0,0,0-1.16-3.62,4.09,4.09,0,0,0-.38-.62l-.08-.11.1.14.23.27.12.14.06.07q1.38,1.57,2.73,3.15h0l0,.06s.12.11.09.08l-.11-.08-.14-.07-.09,0-.29-.14-.4-.16a3.71,3.71,0,0,0-.45-.11l-.15,0-.31-.09-.65-.18a12.81,12.81,0,0,0-1.4-.26l-.36,0c-.16,0-.11,0-.59-.09-.74-.13-1.47-.25-2.19-.35l-1-.15.07,0,.21,0a5.08,5.08,0,0,0,.65,0l.47-.14a2.84,2.84,0,0,0,1-.49,3.62,3.62,0,0,0,.95-1,1.48,1.48,0,0,0,.3-1.1,5.58,5.58,0,0,0,.9-.48c.41-.33.74-.55.44-.93l.07.27c.05.17.11.4.19.79A11.25,11.25,0,0,0,29.21,36c.13.36.25.8.38,1.11.55,1.34.87,1.92-.13,1.61h0l.07,0,.44.12.27.08.14,0a3.63,3.63,0,0,1,.68.21,3,3,0,0,1,.41.19l.15.06a.6.6,0,0,1,.15.09l.09.06,0,0a.6.6,0,0,1-.08-.08l0,0h0l-.82-1h0v0l0,0,0,.07a25.6,25.6,0,0,1,1.62,3.87s.64,1.32,1.51,2.7S36.12,48,37.6,47.72Z"/><path class="cls-18" d="M38.76,54.07a13.86,13.86,0,0,1-.56,3c-.23.41-.77.53-1.11.82a2,2,0,0,1-1.64,0c-2.2-1.17-4.76-.67-6.35-2.92a1.1,1.1,0,0,0-.63-.39c-.06.1-.29.28-.35.37A20.72,20.72,0,0,0,26,55c-1.19.34-2.25-.78-3-2.08-.42-.64-1-1.19-1.39-1.83-.72-1.07.29-3.5-.18-4.23a1.91,1.91,0,0,0-1.52-.93,1.69,1.69,0,0,1-1.46-1,4.47,4.47,0,0,1,.06-2.48c.38-.78.63-1.4,1-2.06a5.06,5.06,0,0,1,1-.85c.29-.11.21.13.41.14.49,0-.52.82-.84,1.31s.18.68.29,1.06a4.1,4.1,0,0,1-.33.86c-.29.58.27.53.63.59.52,0,.32.89.73,1.11.24.17.65,0,1-.12s.61-.19.68.18c-.12-.63,1.53.42,1.1.55.06-.08,0,.42,0,.75a3.1,3.1,0,0,1-.2.61,16.36,16.36,0,0,0-1.38,2.81c0,.17,1.44.71,1.92,1.71.34.82.69,1.72,1.35,1.93.17-.06.29-.57.46-.63a9.49,9.49,0,0,0,2.35-2.15c1-1.09,1.6-2.27,1.83-2.13a2.68,2.68,0,0,1,.83,1.38c.31,1.47.95,2,1.5,3.1.13.31.13.74.25,1.05.42.81,1.07,1.71,1.52,1.77a2,2,0,0,0,2.19-.4C37.49,54.68,38.12,54.39,38.76,54.07Z"/><path class="cls-19" d="M22.39,31.27a3.54,3.54,0,0,1,.3,1.51,6.36,6.36,0,0,1-.44,2,3.91,3.91,0,0,1-.51.82,2.35,2.35,0,0,1-.83.74s-.34.32-.66.69c-.31.19-.58.32-.5.4-.08,0-.16,0-.23-.06l1.07.09,1.19.12s1.43.15,3.62.49l1.78.3.66.07c.46.07.94.16,1.44.28l.74.2.18.06.09,0,.16,0a5.09,5.09,0,0,1,.59.19c.16.06.39.19.43.2l.09,0a.83.83,0,0,1,.24.14l-.1-.09,0,0h0L29,36.28l-.18-.19a6.55,6.55,0,0,1-.42-.53l-.22-.33-.2-.28"/><path class="cls-20" d="M24.84,55.82a10.62,10.62,0,0,1-2.77-2.57,4.05,4.05,0,0,1-.57-1,13.83,13.83,0,0,1-.89-5.07c0-.13-.11-.21-.24-.14-.92.42-1.14-.48-1.83-.46-.27,0-.69.09-.84-.14a3.13,3.13,0,0,1-.49-2.12,5.55,5.55,0,0,1,.78-2.4,12.38,12.38,0,0,1,1.73-2,2.77,2.77,0,0,1,.63-.46c.19-.11.14.05.24.07a6.51,6.51,0,0,0-.45.52c-.29.38-.2.62-.53,1.06a6.08,6.08,0,0,0-.77,1.34,1.19,1.19,0,0,0,0,.68,2.6,2.6,0,0,0,.37,1.15,2.56,2.56,0,0,0,.75.85c.73-.42.74.29,1,.53.07.08.06.3.12.46.24.24.7.11.65.72A8.82,8.82,0,0,0,22,50.56a7.35,7.35,0,0,0,1.34,2.15,8.18,8.18,0,0,0,1.78,1.65c.93.59,1.85.06,2.72.3a1.49,1.49,0,0,1-.55.92A2.21,2.21,0,0,1,24.84,55.82Z"/></g></g></g><g class="cls-13"><g class="cls-5"><g class="cls-5"><path class="cls-21" d="M61.57,44.66c1.39-.44,1.26-1.72,1.56-2a.55.55,0,0,0,.16-.43,2.74,2.74,0,0,0-.26-.76,7.71,7.71,0,0,0-1.14-1.6c-.87-1-1.81-1.63-1.5-1.8a14.29,14.29,0,0,0,2.55-1.9c1-.89,1.85-1.87,1.82-2.16-.06-1.44-1.45-2.09-3.16-2-.78,0-1.22.28-1.24,0a21,21,0,0,1-2.56,1.07c-.68.11-.88-.35-1.61-.08-1.18.25-3.39,0-4.25.19a4.52,4.52,0,0,1-1.74.09c-.38-.09-.55-.31-.72-.75-.12-.78-.72-.58-1-1A2.5,2.5,0,0,0,48,31.1a1,1,0,0,1-.42-.41,1.9,1.9,0,0,0-.38-1.3.5.5,0,0,0-.32.05c-.15.07-.17-.07-.25-.08.06-.52.68-1.32.47-1.53-.06-.07-.42,0-.74.22a16,16,0,0,0-3.65,3.43,2.38,2.38,0,0,0-.54,1.35,6.36,6.36,0,0,0,.2,1,3.91,3.91,0,0,1-.51,2.18c-.37,1-.89,2.07-1.4,3.19-.41.85-1,1.86-1.34,2.77s-.42,1.7.11,2c1.22.54,2.91-.11,3.23,1.09l.14.66.06.32c0,.09,0,.14-.07.21-.13.26-.25.47-.33.61l-.26.4c.16-.17-.33.33.89-1,.48-.39,0,.13,1-.66,1.37-1.07,3.07-2,3.6-1.87.33,0,.42.23.23.55a12.68,12.68,0,0,1-2,1.31c-.89.49-.25.31.47.17A9.54,9.54,0,0,1,48,45.59a2.67,2.67,0,0,1,1.34.16c.15.18-.26.47-.2.71.38.5,1.6.63,2.28,1,1.44,1.68,2.21,1.18,2.11,1.29.07.19-.84.56-.94.87s.64.6,1.26.62a16.4,16.4,0,0,1,2.33.29c.64.17.92.39.87,1,.13-.17.35-.36.33-.42.36-1.65,2.28-2.91,1.77-3.81-.17,0-.43-.11-.5-.21a1.35,1.35,0,0,0-.36-.55C58.13,46.24,60.35,45,61.57,44.66Z"/><path class="cls-22" d="M42.43,33.86a6.56,6.56,0,0,1-.2-1,2.38,2.38,0,0,1,.54-1.35A15.72,15.72,0,0,1,46.41,28c.32-.22.69-.29.74-.23.22.22-.41,1-.46,1.53.08,0,.1.15.25.08a.48.48,0,0,1,.31-.05,1.81,1.81,0,0,1,.38,1.3,1,1,0,0,0,.42.4,2.24,2.24,0,0,1,.49.42c.25.46.85.26,1,1.05.18.43.34.65.73.75a4.58,4.58,0,0,0,1.74-.1c.86-.17,3.08.07,4.25-.17.73-.27.94.19,1.61.08L57,35a18.46,18.46,0,0,0-8.82,2.69A17.62,17.62,0,0,1,42.43,33.86Z"/><path class="cls-23" d="M56.59,34.26a4.61,4.61,0,0,1,1.91.19c.72.33,1,1-.66,1.92,0,0-2.21.84-4.38,1.88-2.34,1.11-4.57,2.56-4.93,2.44a2.86,2.86,0,0,0-.92-.14,2.11,2.11,0,0,0,.13-.68c0-.31-.2-.57-.73-.31l-.5.13a2,2,0,0,1-.62,0,5.77,5.77,0,0,1-.8-.07c-1.15-.18-2.38-.71-2.12-1.38a6.8,6.8,0,0,1-.57-1,2.65,2.65,0,0,1-.25-1.91s.36-.6.65-1.23.54-1.26.22-1.46c0,0,.06-.22.17-.53A6.68,6.68,0,0,1,43.73,31c.45-.76,1-1.37,1.39-1.11l.39.06c.19,0,.44.07.58.11l.17.57c.13.33.3.78.5,1.2.41.87,1.05,1.87.92,2.29a3.82,3.82,0,0,0,.42.72,3.39,3.39,0,0,0,1.38,1.09C50.74,36.41,52.81,36.12,56.59,34.26Z"/><path class="cls-24" d="M57.45,33.63s.28-.1.69-.2a5.75,5.75,0,0,1,1.42-.14c.91.08,1.63.64.64,2a5.62,5.62,0,0,1-.28.75A9.28,9.28,0,0,1,59,37.6,5.5,5.5,0,0,1,55.89,40l-1.41.27c-.84.18-2,.46-3.15.82a31.52,31.52,0,0,0-3.28,1.22,8,8,0,0,1-1.94.73s0,0-.19.1a8.62,8.62,0,0,0-1,.86,3,3,0,0,1-.5.3c-.18.06-.2-.06.27-.9a7.57,7.57,0,0,0,.39-1.19,1,1,0,0,0,0-.45,2.08,2.08,0,0,0-.17-.48c-.13-.28-.29-.44-.52-.44a4.09,4.09,0,0,0,0-.79c0-.37-.15-.69-.54-.52l2.55-.07c.85-.18,1.73-.11,1.28.68,0,0-.12.55.41.51S50,40,53.3,38.38l.68-.46c.4-.29,1-.68,1.5-1.14C56.59,35.86,57.67,34.68,57.45,33.63Z"/><path class="cls-25" d="M62.63,31.65a14.22,14.22,0,0,1,2.43-.11c.34.09.49.48.73.69s.17.9.08,1.28c-.85,2-.22,3.89-1.89,5.61a1,1,0,0,0-.25.58c.1,0,.28.15.37.17a7.87,7.87,0,0,0,.48,1.49.83.83,0,0,1,.2.54.86.86,0,0,1-.19.42,5,5,0,0,1-1,.94,10.31,10.31,0,0,0-1,1.05c-.54.58-2.76,1.18-3,1.69-.57.87,1.07,1,.7,1.72a7.83,7.83,0,0,1-1,1.39,6,6,0,0,0-1.14,1.46,11.39,11.39,0,0,1-.76.9c-.24.13-.23-.14-.43-.16-.51-.12.39-.84.71-1.2s0-.58,0-.9a2.23,2.23,0,0,1,.56-.55c.46-.33,0-.4-.22-.56-.41-.17.26-.68.12-1s-1.36-.4-.94-.87c-.42.41-.45-1.21-.13-1-.09,0,.3-.2.58-.28a3.51,3.51,0,0,1,.55-.12,13.87,13.87,0,0,0,2.72-.36,2.32,2.32,0,0,1,.75-1.37c.3-.2.61-.39.87-.58a1.7,1.7,0,0,0,.31-.28.85.85,0,0,0,.12-.37c-.09-.11-.55-.05-.64-.15a9.38,9.38,0,0,0-2.22-1.27c-1.06-.51-2.08-.87-2-1.09a2.69,2.69,0,0,1,1.09-1,11.64,11.64,0,0,0,2.48-1.86c.25-.17.6-.24.85-.41.65-.5,1.36-1.2,1.37-1.57A1.4,1.4,0,0,0,63.42,33Z"/><path class="cls-26" d="M40.24,44.23a2.45,2.45,0,0,1,.41,0,3.25,3.25,0,0,1,.85.08,1.57,1.57,0,0,1,.84.54,2.35,2.35,0,0,1,.33,1.33,7.53,7.53,0,0,1-.43.83l-.23.34s0,.06,0,0,.29-.33.83-.9c0,0,.47-.39.28-.17,0,0,0,0,.18-.11s.63-.49,1.6-1.17"/><path class="cls-27" d="M65.55,41.81a9.32,9.32,0,0,1-2,2.16l-3.31,2.18c-.07.07-.08.13,0,.14.8.07.38.49.82.61.17.05.51.05.49.16a2.13,2.13,0,0,1-.65,1l-.62.61c-.23.2-.48.41-.74.67A9.18,9.18,0,0,0,58,51a3.48,3.48,0,0,1-.44.54c-.13.14-.13,0-.23-.05a5.12,5.12,0,0,1,.3-.55c.21-.36.15-.56.47-.9s.66-.62.91-.92a.94.94,0,0,0,.2-.41,1.63,1.63,0,0,0,.1-1.35c-.7,0-.3-.36-.32-.58s.14-.17.22-.27-.31-.33.14-.58a29.47,29.47,0,0,0,2.67-1.55,11.63,11.63,0,0,0,2.2-2.3,1.29,1.29,0,0,0-.07-1,2.13,2.13,0,0,1-.23-1,1.32,1.32,0,0,1,.87.17,1.34,1.34,0,0,1,.56.55,1.38,1.38,0,0,1,.17.47A1.08,1.08,0,0,1,65.55,41.81Z"/></g></g></g><g class="cls-13"><g class="cls-5"><g class="cls-5"><path class="cls-28" d="M45.79,30c.05,0,.29.14.25.16l-.75-.35Z"/><path class="cls-28" d="M42.91,25.35c-.2-.33-.41-.66-.65-1-.06-.14-.12-.29-.2-.44L42,23.77c-.09-.2-.22-.43-.3-.62s-.24-.37-.23-.44l.2.12c0-.11.06-.11.11-.16l.39.24-.41-.47.18-.11-.19-.14a1.27,1.27,0,0,0,.23-.43,6.31,6.31,0,0,0,.88-.38l.56.4.15-.12-.57-.4a1.75,1.75,0,0,0,.2-.44l.15-.12c.83.34.06-.11.15-.12l.75.23.07-.07.49.1c.23-.33.7-.33,1-.58,0-.26-.11-.83,1.19-.24-.44-.43-.13-.43-.07-.55.59.35.4.11.68.19l.1-.1.14-.15.15-.16.48-.51a1.22,1.22,0,0,0,.37-.07.78.78,0,0,0,0-.29c0-.09,0-.19,0-.27a3,3,0,0,1-.24-.4l0,0a.78.78,0,0,0,0-.34.9.9,0,0,0,0-.37,1,1,0,0,0,.34-.06c-.68-.43-.38-.44-.14-.44a2,2,0,0,1,.17-.55l-.66-.53.82.34c0-.19.1-.35.14-.53L48,14.67a6.53,6.53,0,0,0-1.09-.7c0-.08,0-.17,0-.25.45-.06.88,0,.29-.36a2.87,2.87,0,0,1-.14-.54c.61,0,.6-.13,0-.36l.09-.11.2-.26c.59,0-.08-.27-.24-.35l.15-.21.19-.26c.28-.08-.26-.24-.28-.36h.55l0,0c-.79-.34-.45-.35-.28-.37l0,0c-.76-.3-.49-.31-.33-.31l-.79-.33.57-.05c0-.06.09-.09.06-.17l-.87-.34a.77.77,0,0,1,.4-.05c.26,0,.91.05,1.35.07l1.44.4a.43.43,0,0,0,.09.2h-.09l-1.45-.38c-.14,0-.29,0-.31.09.49.24.37.31.72.49a4.68,4.68,0,0,0-.54,0c0,.09,0,.17.09.25l.32.24c1,.4.7.4.75.49l.61.21,0,.05a1.57,1.57,0,0,1-.39.17c-.25,0,.5.37.91.57a1,1,0,0,1,.1.24,1.26,1.26,0,0,1-.3,0l.39.22a6.47,6.47,0,0,1-.79.34l.73.43-.55.07a.86.86,0,0,0,0,.3l-.06.09.38.15a1.66,1.66,0,0,1-.4.17l-.38-.16c-.37.05.31.33.4.49a.63.63,0,0,1,.06.29c1.1.4,1.42.34.79,0l.05-.06,1,.18c1.34.83,0,.52.6,1-.23.15,1.61,1,.48.76-.54,0-.49.14.16.47a2.83,2.83,0,0,1-.21.62c-.75-.29-.17.06-.35.08,1.27,1.06-1,.39.2,1.44-.69-.15-.22.19-.09.45a2.34,2.34,0,0,1-.45.18c1.14.81-1-.07-.61.42a2.07,2.07,0,0,0-.42.14c0,.18.66.79-.08.41,0,.15-1.09-.4-.85-.06s-.27.4.32.89c-.86-.21.11.92-1.08.53.56.58-.19.55-.28.83l-.13.12c-.42-.28-.42-.16-.46-.12s-.24,0,.09.23,0,.14-.74-.23l-.19-.13-.6-.6c-.61-.29-.66-.24-1.1-.44l.55.41c.1.13.25.3.4.46l-.83-.39c-.55-.17.66.54.76.75l-1.15-.42c.09.33-.87-.13-.46.39l-.95-.6a.57.57,0,0,0,0,.25,1.87,1.87,0,0,0-.44.06c.5.45.57.73-.2.15l-.26.19.72.79c.69.48,1,.88.7.8l-.73-.51a2.3,2.3,0,0,1,.19.33l-.67-.39s-.1,0-.1.07,0,.19.09.31c.28.43.43.6.61.84l.58.49.6.69c.1.33-.19.25-.22.43s-.66-.42-1-.65l.13.34-.42-.27A3.84,3.84,0,0,1,42.91,25.35Z"/><path class="cls-28" d="M53.52,33.22c.09-.17.44,0,1.09.42C54.62,33.86,54.34,33.93,53.52,33.22Z"/><path class="cls-29" d="M51,29.93l-.41-.48c.52,0-.06-.81.75-.62-1.15-1-1.52-1-2.15-1.59s0-.21-.35-.54l-.18-.13c-.93-.8-1.23-1-1.52-1.24,0-.13-.1-.27-.17-.43l1.24.65c.83.64.16.38.91.92l.2.36c1.09.48,1.06.16,1.3.07l.82.4.65.56c0,.09,0,.16.07.24a1.93,1.93,0,0,0-.19.47,2.18,2.18,0,0,0,0,.25l1,.86.35.59a4.68,4.68,0,0,0-.59-.07c-.26,0,0,.32.09.51l-.07.06c-.26,0-.49,0-.7,0Z"/><path class="cls-30" d="M48.55,31a7,7,0,0,0,.91,0,5.74,5.74,0,0,0,.72,0l.15,0,1.1.77c.57.21-.42-.5-.4-.65h.38c.13,0,.28,0,.34,0a.45.45,0,0,0,.33,0l1.09.73c.16-.16.43-.27-.46-1.07l.07-.06c-.05-.19-.35-.53-.09-.51a4.68,4.68,0,0,1,.59.07l-.35-.59.23-.21a6.52,6.52,0,0,0-1.22-.9,1.93,1.93,0,0,1,.19-.47l1.79,1.29c1.49.65.35-.64,1.39-.45s.17-.92,1.29-.66c.22.95-.77,1.15-.45,2L56,30.13c0,.39-.86.2-1,.6.1.33.37.76-.53.17l-.17.15a.65.65,0,0,1,.12.2,1.74,1.74,0,0,1-.42.08l.87.67a2.89,2.89,0,0,0,.54,1c-.11.13-.29.2-.36.37s0,.21,0,.28-.19.07-.39,0c-.65-.42-1-.59-1.09-.42l-5.12-2A.66.66,0,0,0,48.55,31Z"/><path class="cls-31" d="M55.41,33a2.89,2.89,0,0,1-.54-1L54,31.33a1.74,1.74,0,0,0,.42-.08.65.65,0,0,0-.12-.2l.17-.15c.9.59.63.16.53-.17.1-.4,1-.21,1-.6l.19.13c-.32-.83.67-1,.45-2-1.12-.26-.33.73-1.29.66s.1,1.1-1.39.45L52.13,28.1c0-.08,0-.15-.07-.24l.68.23c.17,0-.49-.4-.62-.59l.24-.23.52-.48c-.22-.29.1-.29.13-.45a4.43,4.43,0,0,0,.56.08c.69.2.84.17.65,0,.21,0,.47.1.72.17a3.08,3.08,0,0,0-.27-.38,4.41,4.41,0,0,0,.6,0c-.12-.21-.23-.41-.32-.59.12-.05.27-.08.39-.14l.14-.16c1.23.59-.45-.44.28-.31a3.81,3.81,0,0,1-.32-.24c-.61-.53,0-.41-.07-.59l.77.15.33-.1-.12-.49,0,0a2.9,2.9,0,0,1,.5-.24c.27-.17-.29-.49-.51-.78.56,0,.06-.28.08-.37.51,0,.56-.05.6-.1l.37-.45c-.18-.14-.52-.36-.48-.42l.06-.06a2.28,2.28,0,0,1,.36-.1c.23,0,.85.09.44-.27a3.57,3.57,0,0,0,.52-.3A6,6,0,0,1,58,20a3.06,3.06,0,0,0-.19-.49c.57-.17-.09-.56.06-.77l-.4-.6-.16-.46c.24.05,0-.18.14-.2.83-.17.64-.53.13-1a3,3,0,0,0-.2-.51l.13-.2c.64,0,.31-.14.18-.27l-.39-.15.2-.3-.19-.11a3.4,3.4,0,0,1,.34-.12c-.07-.06-.1-.1-.17-.15a1,1,0,0,0-.06-.32l.3,0a.7.7,0,0,0-.09-.28l.25-.41c.41.35,1.3.79.4.63a2.16,2.16,0,0,0,0,.27c.34.29.25.43,0,.49l1,.44-.09.15c1,.39.7.41.69.51l.6.32c.08.13.15.26.22.4-.3,0-1-.27-.95-.11.93.39,2.92,1.05,2.56,1.27s0,.76-.6.92c.4.28.91.58.58.66-.5-.22-.48-.09-.53,0s.49.48.15.58l-.26,0c.55.39.81.48.88.62.67.07.31-.12.39-.17l0-.06.54-.06-.16.22,1.39.69-.08.12a8.07,8.07,0,0,1-1.53-.09l-.06.07c.24.21.45.4.64.59h-.21l.24.36-.16.22a1.94,1.94,0,0,1,.18.14l-.17.22h-.55l-1.16-.56-.47-.13,0,0,.93.94.4.14c-.15.13-.34.23-.49.35.1.16.26.33.4.51-.22.06-.45.14-.72.19.33.53.42.86-.26.7a3.18,3.18,0,0,1-.52.28l-.09.1a.63.63,0,0,1,.08.26l-.5,0a7,7,0,0,0,.85.67,2.19,2.19,0,0,0-.46.21c-.18.42-.38.85-.58,1.28,0,.16.55.61.52.78l-.07.08-.77-.16-.43.48a1.89,1.89,0,0,1-.1.44l-.13.13A32.87,32.87,0,0,1,56.78,32c-1.12-.5-.34,0-.22.2l-1,.34A3.62,3.62,0,0,1,55.41,33Z"/><path class="cls-28" d="M51.93,28.82a2.18,2.18,0,0,1,0-.25,6.52,6.52,0,0,1,1.22.9l-.23.21Z"/><path class="cls-32" d="M43.89,25.3c-.18-.24-.33-.41-.61-.84-.05-.12-.11-.24-.09-.31s.05-.07.1-.07l-.31-.3,1,.69a2.3,2.3,0,0,0-.19-.33l.73.51c.27.08,0-.32-.7-.8l-.72-.79.26-.19c.77.58.7.3.2-.15a1.87,1.87,0,0,1,.44-.06.57.57,0,0,1,0-.25l.95.6c-.41-.52.55-.06.46-.39l1.15.42c-.1-.21-1.31-.92-.76-.75l.83.39c-.15-.16-.3-.33-.4-.46l-.55-.41-.14-.17c.42.21.84.43,1.24.61l.79.73c.78.37,1,.42.74.23s-.09-.17-.09-.23,0-.16.46.12l.13-.12c.09-.28.84-.25.28-.83,1.19.39.22-.74,1.08-.53-.59-.49.06-.44-.32-.89s.83.21.85.06c.74.38.09-.23.08-.41a2.07,2.07,0,0,1,.42-.14c-.38-.49,1.75.39.61-.42a2.34,2.34,0,0,0,.45-.18c-.13-.26-.6-.6.09-.45-1.21-1.05,1.07-.38-.2-1.44.18,0-.4-.37.35-.08a2.83,2.83,0,0,0,.21-.62c-.65-.33-.7-.49-.16-.47,1.13.23-.71-.61-.48-.76-.55-.46.74-.15-.6-1l-1-.18-.05.06c.63.34.31.4-.79,0a.63.63,0,0,0-.06-.29c-.14-.17-.25-.32-.4-.49l.38.16a1.66,1.66,0,0,0,.4-.17l-.38-.15.06-.09a.72.72,0,0,1-.09-.24l0-.06.55-.07-.77-.38,0,0a6.47,6.47,0,0,0,.79-.34l-.39-.22a1.26,1.26,0,0,0,.3,0l.6.22.94.21.76.38c.31.34,1.35,1,1.48,1.25-.82-.23-.37.06-.67.17l.43.16a5.38,5.38,0,0,0,.08.66c-.37,0,.5.3.72.46l-.11.15c.29.29.6.63.94.92-.75.64-.64,1.46-.52,2.45,0,.21-1.13-.31-.34.43,0,.09,0,.2,0,.29-.66,0-.54.3-1.21.12.15.31.92.64.83.68l-.1.12c-.51,0,0,.27,0,.38-.6-.07-.09.23-.21.23l0,0-.32.36-.07.09-.8-.06c-.06.14-.09.31-.15.44l-.14.14L52,22.49c-.71,0-.61.71-1.27.68.37.46-.24.37-.24.55-.74-.4-.38,0-.8-.15-.1,0-.22,0-.32.05-.33.08-.1.61-1.12.14a7.64,7.64,0,0,1,.45.73l-.59-.31L48,24.3a4.37,4.37,0,0,0-.75-.47c-.06.17.24.44.83,1-.21-.06-.38-.08-.55-.12,0,.09,0,.16.05.25l.62.59-1.24-.65c.07.16.12.3.17.43a.74.74,0,0,0,0,.3l-.05.05-.23.19-.66-.34c-.07.16.36.73-.43.31a3.06,3.06,0,0,1-.32.05.3.3,0,0,0-.18.15c0,.12-.6-.26-.75-.25Z"/><path class="cls-33" d="M49.09,26.47a2.13,2.13,0,0,1,.33,0c.32.07-.26-.37-.6-.67a1.39,1.39,0,0,0,.36,0l-.6-.61-.52-.37c-.59-.56-.89-.83-.83-1a4.37,4.37,0,0,1,.75.47l.13-.12.59.31a7.64,7.64,0,0,0-.45-.73c1,.47.79-.06,1.12-.14.1,0,.22,0,.32-.05.42.15.06-.25.8.15,0-.18.61-.09.24-.55.66,0,.56-.64,1.27-.68l.16.09.14-.14c.06-.13.09-.3.15-.44l.8.06.07-.09.32-.36,0,0c.12,0-.39-.3.21-.23,0-.11-.49-.4,0-.38l.1-.12c.09,0-.68-.37-.83-.68.67.18.55-.09,1.21-.12,0-.09,0-.2,0-.29-.79-.74.29-.22.34-.43-.12-1-.23-1.81.52-2.45-.34-.29-.65-.63-.94-.92l.11-.15c-.22-.16-1.09-.47-.72-.46a5.38,5.38,0,0,1-.08-.66l-.43-.16c.3-.11-.15-.4.67-.17-.13-.29-1.17-.91-1.48-1.25l-.76-.38-.94-.21-.6-.22a1,1,0,0,0-.1-.24c-.41-.2-1.16-.52-.91-.57a1.57,1.57,0,0,0,.39-.17l0-.05.3-.07c-.23-.29-.79-.64-.7-.86S49,10.13,49,10s.12-.14.34-.16h.09c.21.06.43.12.59.18a.23.23,0,0,0,0,.21,4.58,4.58,0,0,0,.8.32c0-.14.47-.06.88,0s.76.09.74,0,.05-.08.1-.12c.49,0,1,0,1.35,0a2.55,2.55,0,0,0-.27.4,2.51,2.51,0,0,1-.34.42c-.09.14-.22.28-.68.28-.27.1,1.07.57.86.65a7.08,7.08,0,0,1,1.33,1.15l1,.47a.89.89,0,0,0,.06.3l0,0-1.2-.12,1.36.62.77,0,.61.23.19.11-.2.3c-.13.05-.23.12-.36.16l.57.26-.13.2a3,3,0,0,1,.2.51c.51.44.7.8-.13,1-.18,0,.1.25-.14.2l.16.46a2.1,2.1,0,0,1-.45.23l.2.87-.33.07c-.28,0,.24.28.27.39-.14.25-.24.53-.39.79a3.74,3.74,0,0,1,0,.75l.21.1-.06.06a5.45,5.45,0,0,1-.56,0c0,.17-.39.19-.11.48l-.46-.14.43.53-.33.05c.16.15.55.4.46.43l-.5,0c-.13,0,0,.14.07.26a2.1,2.1,0,0,0-.48.2l-.16.18.37.2a1.13,1.13,0,0,1,0,.3l-.2-.11a.66.66,0,0,1,0,.3l-.17.19c.08.18-.54.06.07.59l-.8-.13c.29.28-.18.19.15.51l-.87-.34.44.46a1.7,1.7,0,0,1-.45.15l.19.12-.17.17-.29.3-.35-.23c-.61-.65-.48-.78-.32-.94l-.35-.22c-.81-.08-.47.47-1.15.2-.43.1-1,.3-.67.94L50,25.4l.1.2c-.13,0-.22,0-.36,0l.72.5,1.07,1.08.62.29c.13.19.79.55.62.59l-.68-.23-.65-.56-.82-.4c-.24.09-.21.41-1.3-.07Z"/><path class="cls-28" d="M47.56,25c0-.09,0-.16-.05-.25.17,0,.34.06.55.12l.52.37.6.61a1.39,1.39,0,0,1-.36,0c-.19-.07-.41-.17-.64-.27Z"/><path class="cls-28" d="M65.61,20.06a.63.63,0,0,0-.11-.24,3.07,3.07,0,0,0,.52-.39l.6.24.23-.36c.18,0,.33.06.48.08.76.4.61.64-.07.53l.57.28a5.22,5.22,0,0,1-.6.52c-.14.13-.31.24-.45.38l-1.26-.48C65.54,20.42,65.6,20.25,65.61,20.06Z"/><path class="cls-30" d="M52.08,9.8c-.71-.17-.37-.2-.12-.24s.45-.09-.43-.26l-.69-.16L50.39,9h.79L51,8.92l.85-.06a5.54,5.54,0,0,1,1,.17l-.46.05.67.15h.06l.39.11.62-.1.26,0,.61.09c-.21.07-.34.16-.52.23l-.06,0L54,9.52h-.39a.66.66,0,0,0-.17.25l1.1.22.11,0,.51.17h.4l.63.14.11,0c.06.09.12.18.2.28s-.55,0-.93,0L55,10.43l-.45-.08L54,10.09,53.45,10l-.21-.09C52.88,9.87,52.52,9.85,52.08,9.8Z"/><path class="cls-28" d="M49.82,8.76,51,8.92l.14.11h-.79l-.76-.14Z"/><path class="cls-28" d="M56.15,9.16a1.49,1.49,0,0,1-.37.05h-.05a.07.07,0,0,0,0,0l-.39-.07c-.2,0-.62,0-.16,0l.4,0,.08,0c.34,0,.71-.12.31,0,.41-.08.3-.19.23,0a.42.42,0,0,0,.18.17l.05.13-.05.06A.63.63,0,0,1,56.15,9.16Z"/><path class="cls-29" d="M43.9,26.26c.29.23.77.79,1,.65.06.21.1.39.15.59a2.13,2.13,0,0,1-1-.9Z"/><path class="cls-29" d="M48.25,30.69l-.34-.43c.1-.49.74.43,1,.27l.37.06.87.41a5.74,5.74,0,0,1-.72,0,7,7,0,0,1-.91,0Z"/><path class="cls-29" d="M51,31.15c-.32-.44-1.67-1.4-.75-1,.5.27,1,.68,1.47,1-.06.06-.21.05-.34,0Z"/><path class="cls-29" d="M40.46,21.8a1.69,1.69,0,0,1,.61.33.61.61,0,0,0,.16-.09.53.53,0,0,1,0-.23l.53.38.19.14-.18.11.41.47-.39-.24s-.14,0-.11.16l-.2-.12Z"/><path class="cls-29" d="M48.24,28c-.38-.63-.18-.66.37-.29C48.91,28.24,48.91,28.42,48.24,28Z"/><path class="cls-29" d="M55.6,32.57l1-.34.44.21a4.39,4.39,0,0,0-.22-.41,32.87,32.87,0,0,0,2.7-2.39l1.06.79c-.39.15-.93.2-.46.82-.62,0,.17.86-.16,1.07a6,6,0,0,0-.94-.59c-.36.16,1.34,1.73-.28.91a5.16,5.16,0,0,0,.18.7,4.58,4.58,0,0,1-.62,0l-.41-.17c-.15,0-.27.07-.43.09s.6,1.06-.58.23c.11.21.26.44.13.49a14.88,14.88,0,0,0-1.56-1A3.62,3.62,0,0,0,55.6,32.57Z"/><path class="cls-29" d="M42.83,21.38l.14-.12.57.4-.15.12Z"/><path class="cls-29" d="M43.17,20.82c-.42-.4-.55-.57.15-.12Z"/><path class="cls-29" d="M44.29,20.74c-.8-1,.25-.69.44-1-.32-.68.35-1,.88-1.16.38.18.23,0,.31,0l-.17-.13c0-.79,1.31-.79.61-1.87.4.14.26,0,.36-.07-.58-.55.17-.59.21-.91-.73-.45.15-.31-.26-.66.41-.2-.75-1,.24-1a6.53,6.53,0,0,1,1.09.7l1.23.54c0,.18-.11.34-.14.53l-.82-.34.66.53a2,2,0,0,0-.17.55c-.24,0-.54,0,.14.44a1,1,0,0,1-.34.06.9.9,0,0,1,0,.37.78.78,0,0,1,0,.34l0,0a3,3,0,0,0,.24.4c0,.08,0,.18,0,.27a.78.78,0,0,1,0,.29,1.22,1.22,0,0,1-.37.07l-.48.51-.15.16-.14.15-.1.1c-.28-.08-.09.16-.68-.19-.06.12-.37.12.07.55-1.3-.59-1.19,0-1.19.24-.27.25-.74.25-1,.58Z"/><path class="cls-29" d="M59.71,29.07l.43-.48.77.16c.93.65-.12.34.64.91.44.4-.38.15-.71.12l-.23.25a11,11,0,0,0-1-.52A1.89,1.89,0,0,0,59.71,29.07Z"/><path class="cls-29" d="M61,26.61a2.19,2.19,0,0,1,.46-.21l.45.09c-.21-.38-1-.67-.8-.73a.63.63,0,0,0-.08-.26l.09-.1a3.18,3.18,0,0,0,.52-.28c.68.16.59-.17.26-.7.27-.05.5-.13.72-.19-.14-.18-.3-.35-.4-.51.15-.12.34-.22.49-.35l.32-.43h.55l.17-.22a1.94,1.94,0,0,0-.18-.14l.16-.22,1.37.33c.23,0-.33-.32,0-.32l.21-.31.16-.23-.77-.39.08-.12c.2,0,.4-.11.65-.16a2.72,2.72,0,0,1,.08-.51l0,0,1.26.48.44.49c0,.07-.11.15-.37.14a2.19,2.19,0,0,1,.23.46c.32.25,0,.26,0,.41l-.16.23c-.4.26-.74.53-1.1.79a1.43,1.43,0,0,1,.15.18,5.93,5.93,0,0,1-.7.18l-.11.15c-.72-.08-.82,0-.62.16,0,.08,0,.19,0,.27-.41,0,.87.49.68.59l-.93-.26c-.09.12-1.16-.13-.06.45-.36-.05-.5.12-.29.37-.35,0-.2.12.15.54-1-.51-1-.44-.35.08-.86-.07-.87.36-.85.69-.21,0-.62,0,0,.41-.17.34-.55.39-.44.87,1.07.49.36.49.15.45-1.26-.54-.42.41-1.61-.08,0-.17-.54-.62-.52-.78C60.66,27.46,60.86,27,61,26.61Z"/><path class="cls-29" d="M46.89,13.72c-.38-.31-.44-.58.29-.36S47.34,13.66,46.89,13.72Z"/><path class="cls-29" d="M47,12.82c-.45-.28-.34-.43,0-.36C47.64,12.69,47.65,12.83,47,12.82Z"/><path class="cls-29" d="M47.13,12.35c-.52-.34-.47-.41-.19-.41l.15-.2c.16.08.83.37.24.35Z"/><path class="cls-29" d="M47.24,11.53c-.56-.35-.51-.42-.24-.41a2.77,2.77,0,0,0-.28-.37l-.22-.36c.16-.14-.71-.53-.52-.71a2.18,2.18,0,0,1-.29-.36c0-.07.41,0,.44-.07l.87.34c0,.08,0,.11-.06.17l-.57.05.79.33c-.16,0-.43,0,.33.31l0,0c-.17,0-.51,0,.28.37l0,0h-.55c0,.12.56.28.28.36Z"/><path class="cls-29" d="M46.93,9c-1.45-.43.26-.13.78-.11-.16-.14,1.22,0,.57-.18a8.76,8.76,0,0,1,1.35.19l.76.14c-.48,0-.91,0-1.28.07l-.4,0h-.13l-.2,0Z"/><path class="cls-29" d="M49.82,8.76c-.33-.07-.8-.16-.52-.14-.16-.07,0-.08.16-.1.77.1,1.29.21,2.35.32a.45.45,0,0,1-.1-.09,9.36,9.36,0,0,0,1.14.11c.45,0,.87,0,1,.06l.07,0c.41,0,.91.06,1.15.06l.12,0c-.46,0,0,0,.16,0l.39.07a.07.07,0,0,1,0,0,6.34,6.34,0,0,1-.69.17l-.61-.09-.26,0-.67-.06L52.89,9a5.54,5.54,0,0,0-1-.17L51,8.92Z"/><path class="cls-29" d="M57.23,9.68a1.21,1.21,0,0,1-.41-.25c-.19-.2-.18-.2-.1-.16a3.07,3.07,0,0,1,.64.45Z"/><path class="cls-32" d="M50.33,31c-.13-.23.18-.31.7.12,0,.15,1,.86.4.65Z"/><path class="cls-32" d="M52.08,31.11c-.5-.44-.23-.39-.07-.34s.44,0,.7,0c.89.8.62.91.46,1.07Z"/><path class="cls-32" d="M49.46,11.32a1.57,1.57,0,0,1-.39.17c-.25,0,.5.37.91.57-.41-.2-1.16-.52-.91-.57A1.57,1.57,0,0,0,49.46,11.32Z"/><path class="cls-32" d="M48.9,11.06c0-.09.27-.09-.75-.49l-.32-.24c0-.08,0-.16-.09-.25a4.68,4.68,0,0,1,.54,0c-.35-.18-.23-.25-.72-.49,0-.07.18-.09.42-.09.4.13.84.25,1.43.38h-.09c-.22,0-.36.06-.34.16s.13.22.13.31.47.57.7.86l-.3.07Z"/><path class="cls-32" d="M50.39,9l.45.12-.57.11a4.89,4.89,0,0,1-1.16-.16C49.48,9.06,49.91,9,50.39,9Z"/><path class="cls-30" d="M46.22,30.25a2.43,2.43,0,0,1,.57.16,5.65,5.65,0,0,0,.74.24l.48.41C47.41,30.82,46.77,30.5,46.22,30.25Z"/><path class="cls-30" d="M56.56,32.23c-.12-.19-.9-.7.22-.2a4.39,4.39,0,0,1,.22.41Z"/><path class="cls-30" d="M51.5,27.21l-1.07-1.08-.72-.5c.14,0,.23,0,.36,0l-.1-.2.83.38c-.35-.64.24-.84.67-.94.68.27.34-.28,1.15-.2l.35.22c-.16.16-.29.29.32.94l.35.23.29-.3.17-.17-.19-.12a1.7,1.7,0,0,0,.45-.15l-.44-.46.87.34c-.33-.32.14-.23-.15-.51l.8.13a3.81,3.81,0,0,0,.32.24c-.73-.13,1,.9-.28.31l-.14.16c-.12.06-.27.09-.39.14.09.18.2.38.32.59a4.41,4.41,0,0,1-.6,0,3.08,3.08,0,0,1,.27.38c-.25-.07-.51-.13-.72-.17.19.19,0,.22-.65,0L53.12,26c-.75-.2,0,.32-.11.36s-.35.16-.13.45l-.52.48-.24.23Z"/><path class="cls-30" d="M55.54,24a.66.66,0,0,0,0-.3l.2.11a1.13,1.13,0,0,0,0-.3l-.37-.2.16-.18a2.1,2.1,0,0,1,.48-.2c-.08-.12-.2-.25-.07-.26l.5,0c.22.29.78.61.51.78a2.9,2.9,0,0,0-.5.24l0,0,.12.49-.33.1-.77-.15Z"/><path class="cls-30" d="M61.5,26.4a7,7,0,0,1-.85-.67l.5,0c-.16.06.59.35.8.73Z"/><path class="cls-30" d="M56.79,21.21a3.74,3.74,0,0,0,0-.75c.15-.26.25-.54.39-.79,0-.11-.55-.4-.27-.39l.33-.07-.2-.87a2.1,2.1,0,0,0,.45-.23l.4.6c-.15.21.51.6-.06.77A3.06,3.06,0,0,1,58,20a6,6,0,0,0,.28.67,3.57,3.57,0,0,1-.52.3c.41.36-.21.27-.44.27a2.28,2.28,0,0,0-.36.1Z"/><path class="cls-30" d="M63.53,22h.21c-.19-.19-.4-.38-.64-.59l.06-.07a8.07,8.07,0,0,0,1.53.09l.77.39-.16.23-.21.31c-.28,0,.28.3,0,.32l-1.37-.33Z"/><path class="cls-34" d="M61.68,20.09l0-.08.21.1c.34-.1-.23-.39-.15-.58s0-.19.53,0c.33-.08-.18-.38-.58-.66.59-.16.19-.71.6-.92s-1.63-.88-2.56-1.27c-.1-.16.65.08.95.11-.07-.14-.14-.27-.22-.4l-.6-.32c0-.1.29-.12-.69-.51l.09-.15-1-.44c.3-.06.39-.2,0-.49a2.16,2.16,0,0,1,0-.27c.9.16,0-.28-.4-.63l0-.08,1.33.32a5.25,5.25,0,0,1-.17-.52,6.74,6.74,0,0,0-.67-.47.94.94,0,0,0-.24-.32l-.6-.19c-.14-.09-.27-.19-.44-.29l0-.37L55.72,11l.05-.09c.78.2.74.14.75.1a3.92,3.92,0,0,0-.84-.28c-.21-.09-.3-.2-.07-.1.38.08,1,.18.93,0s-.14-.19-.2-.28c.2-.09.18-.16.18-.23l0-.28.42.11a1.42,1.42,0,0,0,.25.23l1.08.25.08,0,.18.17.07,0,.47.54.12.11.31.33a4,4,0,0,1,.65.36l.23.23c-.06.07-.08.15-.15.22a2.64,2.64,0,0,0,.78.74l1.05.24a4.4,4.4,0,0,0-.42-.53,9.55,9.55,0,0,0,1.45.75l.56.42a4.24,4.24,0,0,1,.46.4,1.13,1.13,0,0,1,.37.57,8.53,8.53,0,0,1,.49.71c.08-.34.82-.09,1.25,0l.57.29-.58.1,1.48.5c0,.1.06.19.11.29l-.68-.18c.2.47-1.48,0-.75.49l.22.07-.19.33.2.46,1,.42-.34.58-1.74-.45c-.72-.38.39-.3-.81-.76L64,17.81c0,.1-.2.15.29.39,0,.47,0,.83,0,1.23l-.3.46c-.08.05-.21.08-.29.12s0,.28-.06.41l-.54.06,0,.06c-.08.05.28.24-.39.17C62.49,20.57,62.23,20.48,61.68,20.09Z"/><path class="cls-30" d="M63.38,20.64l.16-.22c0-.13,0-.28.06-.41l1.09.31-.8-.43.3-.46,1.31.39a.63.63,0,0,1,.11.24c0,.19-.07.36-.09.56l0,0a2.72,2.72,0,0,0-.08.51c-.25,0-.45.11-.65.16Z"/><path class="cls-30" d="M57.49,17.45c.83-.17.64-.53.13-1C58.13,16.92,58.32,17.28,57.49,17.45Z"/><path class="cls-31" d="M64.69,17.89c1.2.46.09.38.81.76l1.74.45a.88.88,0,0,1,.09.29c-.15,0-.3,0-.48-.08l-1-.4c-.34.11.63.52.2.52a3.07,3.07,0,0,1-.52.39l-1.31-.39c0-.4,0-.76,0-1.23-.49-.24-.3-.29-.29-.39Z"/><path class="cls-30" d="M66,19.43c.43,0-.54-.41-.2-.52l1,.4-.23.36Z"/><path class="cls-30" d="M57,15.51c.13,0,.23-.11.36-.16l.39.15c.13.13.46.29-.18.27Z"/><path class="cls-30" d="M54.61,14.05l1.2.12,0,0a.89.89,0,0,1-.06-.3l-1-.44c-.18-.29-1.15-.76-.92-1-.93-.27.26-.16-1-.5-.58-.42-.19-.5.09-.63a5.3,5.3,0,0,0,.52-.17c.13-.07.14-.18,0-.34.08-.07.39-.09.19-.21a9.76,9.76,0,0,1-1.12-.15L52,10.27a1.25,1.25,0,0,1,.24-.21l.64.08,1,.33c.76.46,1.28.76,1.17.94a3.46,3.46,0,0,0,.43.41l.54-.11,1.14.35c.17.1.3.2.44.29a.62.62,0,0,1,0,.24,1.28,1.28,0,0,1-.38.13c.12.24.51.52.52.74l.22.07,0,.08-.25.41a.7.7,0,0,1,.09.28l-.3,0a1,1,0,0,1,.06.32c.07.05.1.09.17.15a3.4,3.4,0,0,0-.34.12l-.61-.23-.77,0Z"/><path class="cls-31" d="M64.94,15.78a8.53,8.53,0,0,0-.49-.71,1.13,1.13,0,0,0-.37-.57,4.24,4.24,0,0,0-.46-.4l-.56-.42a9.55,9.55,0,0,1-1.45-.75,4.4,4.4,0,0,1,.42.53L61,13.22a2.64,2.64,0,0,1-.78-.74c.07-.07.09-.15.15-.22L60.12,12a4,4,0,0,0-.65-.36l-.31-.33.86.32-.42-.36-.06-.05.32.09.67.18c.46.08.38,0,.65.09l.7.36a.91.91,0,0,1-.26.06,8,8,0,0,0,1.67,1l.78.22,1.32.9,1.72,1.06c.81.39,1,.61.8.69s-.22.27-.1.48l-.15.26-1.48-.5.58-.1-.57-.29C65.76,15.69,65,15.44,64.94,15.78Z"/><path class="cls-30" d="M64.07,13.25,63.29,13a8,8,0,0,1-1.67-1,.91.91,0,0,0,.26-.06l1.08.61A7.79,7.79,0,0,1,64.07,13.25Z"/><path class="cls-30" d="M59.16,11.34,59,11.23l-.47-.54,1,.56.06.05.42.36Z"/><path class="cls-30" d="M60.53,11.52l-.67-.18a2,2,0,0,0-.3-.38l.4.15,1.22.5C60.91,11.51,61,11.6,60.53,11.52Z"/><path class="cls-30" d="M58.24,10.45c-.44-.36-.87-.61-1-.77l.13,0,.38.17a4.3,4.3,0,0,1,.37.31c.08.09.14.18.21.27Z"/><path class="cls-33" d="M47.53,30.65l.47,0,.25.06.3.29a.66.66,0,0,1-.15.22L48,31.06Z"/><path class="cls-33" d="M53,26.34c.11,0-.64-.56.11-.36l.45.44A4.43,4.43,0,0,1,53,26.34Z"/><path class="cls-33" d="M50.14,9.82c.2-.08,0-.26-.33-.43l-1.1-.32.4,0a4.89,4.89,0,0,0,1.16.16l.57-.11.69.16c.88.17.68.21.43.26s-.59.07.12.24l.29-.09a5.56,5.56,0,0,0,.87.17l.21.09-.51.15-.07,0-.64-.08a3.26,3.26,0,0,0-1.53-.14Z"/><path class="cls-33" d="M59.54,11.25l-1-.56-.07,0,1.06.32a2,2,0,0,1,.3.38Z"/><path class="cls-33" d="M53.16,9.24H53.1l.4,0,.67.06-.62.1Z"/><path class="cls-31" d="M63.6,20c.08,0,.21-.07.29-.12l.8.43Z"/><path class="cls-31" d="M66.57,18.1l-.2-.46.19-.33-.22-.07c-.73-.52,1,0,.75-.49l.68.18c.24.41.54.71.25.85l-.44.74Z"/><path class="cls-31" d="M60.92,15.33l.14-.22.91.13c.39-.1.21-.34.05-.55s-.32-.43.38-.4l.44.14c-.1.14,0,.32.07.53s-.2.65-.51.89Z"/><path class="cls-31" d="M57.74,13.46c0-.22-.4-.5-.52-.74a1.28,1.28,0,0,0,.38-.13.62.62,0,0,0,0-.24l.6.19a.94.94,0,0,1,.24.32,6.74,6.74,0,0,1,.67.47,5.25,5.25,0,0,0,.17.52L58,13.53Z"/><path class="cls-31" d="M55.49,11.82c-.75-.38-.67-.41-.43-.41.11-.18-.41-.48-1.17-.94l.61-.12.45.08.66.19c-.23-.1-.14,0,.07.1a3.92,3.92,0,0,1,.84.28s0,.1-.75-.1l-.05.09,1.43.7,0,.37L56,11.71Z"/><path class="cls-31" d="M54.69,10l.09-.06a1.62,1.62,0,0,1-.32-.34l.06,0c.18-.07.31-.16.52-.23a6.34,6.34,0,0,0,.69-.17h.05a1.49,1.49,0,0,0,.37-.05.63.63,0,0,0,.22.29l.05-.06-.05-.13c0-.17.07-.06.13-.06a3.38,3.38,0,0,0,.32.23,1.21,1.21,0,0,0,.41.25c.14.16.57.41,1,.77l-1.08-.25a1.42,1.42,0,0,1-.25-.23l-.42-.11,0,.28c0,.07,0,.14-.18.23l-.11,0-.63-.14h-.4Z"/><path class="cls-31" d="M52.43,9.08,52.89,9l.61.16-.4,0Z"/><path class="cls-34" d="M62.35,23.23l-.93-.94,0,0,.47.13,1.16.56-.32.43Z"/><path class="cls-34" d="M52.87,10.14l.07,0,.51-.15.54.12.51.26-.61.12Z"/><path class="cls-34" d="M53.49,9.55l.16,0H54l.42.11a1.62,1.62,0,0,0,.32.34l-.09.06-.11,0-1.1-.22A1.55,1.55,0,0,1,53.49,9.55Z"/><path class="cls-32" d="M49.41,9.87a.43.43,0,0,1-.09-.2l-1.44-.4.82,0s-.29-.13-.32-.19l.2,0h.13l1.1.32c.37.17.53.35.33.43l.56.1.42-.05c.06-.11.72.06,1.11.19a1.25,1.25,0,0,0-.24.21l.55.16s0,.08-.1.12-.32.08-.74,0-.92-.13-.88,0a4.58,4.58,0,0,1-.8-.32.23.23,0,0,1,0-.21C49.84,10,49.62,9.93,49.41,9.87Z"/><path class="cls-28" d="M47.88,9.27l-1-.29,1.45.12c0,.06.33.14.32.19Z"/><path class="cls-29" d="M43.32,20.7l.15-.12C43.38,20.59,44.15,21,43.32,20.7Z"/><path class="cls-29" d="M46.13,9.25c-.39-.18-.76-.37-.57-.4a2.18,2.18,0,0,1,.55,0l.82.11,1,.29c-.44,0-1.09-.1-1.35-.07A.77.77,0,0,0,46.13,9.25Z"/><path class="cls-32" d="M51.62,12.73c-.56-.37-.51-.43-.47-.5C53,12.76,52.44,12.88,51.62,12.73Z"/><path class="cls-32" d="M48.18,25.55c.23.1.45.2.64.27.34.3.92.74.6.67a2.13,2.13,0,0,0-.33,0C48.34,25.93,49,26.19,48.18,25.55Z"/><path class="cls-30" d="M56.37,22.71c.09,0-.3-.28-.46-.43l.33-.05-.43-.53.46.14c-.28-.29.09-.31.11-.48a5.45,5.45,0,0,0,.56,0c0,.06.3.28.48.42l-.37.45c0,.05-.09.11-.6.1C56.43,22.43,56.93,22.74,56.37,22.71Z"/></g></g></g></g><path class="cls-3" d="M61.28,50.14l-20.2.26-10.2.07-10.21,0h-.34v-.33c.06-6.77.19-13.53.2-20.3s-.06-13.52-.08-20.29V9.31h.22L41,9.15c6.77,0,13.53-.06,20.29,0h.42v.41l0,10.22-.11,10.19Zm-.06,0L61,29.71l-.11-10.1,0-10.08.42.42c-6.76,0-13.52,0-20.29,0L20.67,9.76l.22-.23c0,6.77-.12,13.53-.08,20.29s.15,13.53.2,20.3l-.34-.34H30.75l10.09.06Z"/><g class="cls-4"><g class="cls-5"><g class="cls-5"><path class="cls-35" d="M35.46,30.2a6.38,6.38,0,0,0,2.87.53c.81.23.39-.51,0-1.35s-.91-1.73-.53-1.46c1.09.76,6.32,4.16,6.57,4.33s.39,0,.09-.27-.85-.88-1.62-1.58L42,29.64l-.18-.19,0,0h0l-5.46-5.18h0l0,0a5.15,5.15,0,0,1-.52-.55,4.61,4.61,0,0,1-.43-.58l-.12-.21c0-.11,0-.07,0-.08a2.59,2.59,0,0,1,.06.68c0,.24,0-.12,0-.22a1.82,1.82,0,0,1,.09-.37.94.94,0,0,1,.23-.39c.17-.11.29.07.31.52-.07.88.41.37.59.83s.62.27.89.69a1.6,1.6,0,0,0,.72,1.5.89.89,0,0,0,.42-.22c.18-.15.26,0,.39,0a5,5,0,0,1,.2,1.29c.06.43.19.8.51.76s.57-.58.82-1.06A47.28,47.28,0,0,0,43,20.74c.57-1.63.36-1.82.18-2.48-.24-.85,1.18-4,2.5-7,1.07-2.33,2.9-5.9,1.74-6.37a10.79,10.79,0,0,0-2.61,0A3.16,3.16,0,0,1,42.13,3.8,9.17,9.17,0,0,0,37.35.44a5.48,5.48,0,0,0-1-.45,7.19,7.19,0,0,0-1.22-.32,28.59,28.59,0,0,0-4.9.67,4.72,4.72,0,0,0-3.51,2.92c-2.67,2.11-4.5,2.37-5,5,0,.42-.06.84-.07,1.26v.62a1.41,1.41,0,0,0,.13.49c.21.61.42,1.2.6,1.74A6.17,6.17,0,0,1,22.94,15a1.38,1.38,0,0,1-1,1.37,21.94,21.94,0,0,1-3.26-.88c-1.38-.43-1,.65-.32,1.54A17.75,17.75,0,0,1,21,21c0,.31-.69.22-.83.48,0,.81,1.21,2,1.68,2.87.36,2.69,1.7,2.75,1.48,2.78,0,.23-1.39-.08-1.74.18s.34,1,1.09,1.48l2.71,1.65a1.91,1.91,0,0,1,.68.63c.07.2,0,.41-.19.75a6.87,6.87,0,0,0,.67-.33,4.82,4.82,0,0,1,2.86-1.19c1-.16,1.66-.17,1.62-.53-.18-.11-.46-.29-.48-.4s0-.33-.12-.53.89,0,1.93.31A27.3,27.3,0,0,1,35.46,30.2Z"/><path class="cls-36" d="M43.1,18.3c.18.66.39.85-.18,2.48a48,48,0,0,1-2.47,6.07c-.24.48-.63,1.06-.82,1s-.45-.34-.51-.77a5.54,5.54,0,0,0-.2-1.29c-.13,0-.21-.14-.4,0a.87.87,0,0,1-.41.22,1.59,1.59,0,0,1-.72-1.5c-.27-.42-.67-.32-.89-.68s-.65.06-.58-.83c0-.45-.13-.63-.29-.52a1,1,0,0,0-.23.4,1.82,1.82,0,0,0-.09.37,1.64,1.64,0,0,0,0,.23h0v-.08a2,2,0,0,0,0-.23v-.18l0-.16a.87.87,0,0,0,0-.1s0,0,0,.08l.11.22a5.21,5.21,0,0,0,.44.58l.13.15.17.19,1.16,1.1L36.1,24l-.25-.29a3.09,3.09,0,0,1-.36-.45,5.69,5.69,0,0,1-.59-1.08,5.09,5.09,0,0,1-.34-1.23,6.53,6.53,0,0,1,1.86-5.13,12.23,12.23,0,0,1,3.82,1C41.32,17.31,42.27,17.85,43.1,18.3Z"/><path class="cls-37" d="M35.84,23.69a4,4,0,0,0,.29.32l2.29,2.22c.11.17.21.33.28.46.3.49,0,.62-2-1.14a58.46,58.46,0,0,1-4.54-4.9,18.51,18.51,0,0,1-1.48-2,10.36,10.36,0,0,1-1-2.06c-.41-1.32-.32-2.49.26-2.9,0,0,.39-.29,1-.63s1.3-.71,1.81-1a9.88,9.88,0,0,0,1.36.7,2.64,2.64,0,0,0,2.52-.1l.33-.09c.19-.06.48-.13.84-.21a12.38,12.38,0,0,1,2.44-.24c1.71,0,3.06.41,2.72,1.29a4.57,4.57,0,0,1,.49,1.06,3.26,3.26,0,0,1,0,2.05s-1.66,3.44-1,3.39l-.14.65L42,22c-.27,1.06-.61,2.17-1.22,2.2,0,0-.24.11-.53.22a5.28,5.28,0,0,1-.84.22s-.17-.24-.37-.58a14.08,14.08,0,0,1-.66-1.25,5.18,5.18,0,0,1-.75-2.53,2.35,2.35,0,0,0-.38-.76,1.71,1.71,0,0,0-1.46-.74,1.58,1.58,0,0,0-1.35,1.83,4.68,4.68,0,0,0,.73,2.14l.19.3.13.19.12.17A2.75,2.75,0,0,0,35.84,23.69Z"/><path class="cls-38" d="M35.9,23.77a2.65,2.65,0,0,0,.2.22,2.51,2.51,0,0,0,.23.21l0,0h0l3.54,3.36h0l0,0,.14.16.25.29c.64.73.89,1.11-.88-.11l-.76-.39-1.89-1a18.84,18.84,0,0,1-4.53-2.87A39.62,39.62,0,0,1,28,18.69c-.48-.71-.93-1.45-1.33-2.19a13.87,13.87,0,0,1-.91-2.24,5.37,5.37,0,0,1,2.29-4.78,1.73,1.73,0,0,0,.44-.5,16.21,16.21,0,0,0,1.12-2.37,6.91,6.91,0,0,1,2.45-1.39A4.79,4.79,0,0,1,34.36,5a2.61,2.61,0,0,1,1.78,1.22l.73.62.74.64.75.76c1,1,1.82,2.09,2.52,2a5.84,5.84,0,0,0,.19,1.1c.11.51.33.93.8.61l-3.7.68c-1,.17-2,.36-2.82.43s-1.55,0-1.93-.6a2,2,0,0,0-.76-.18,2.68,2.68,0,0,0-1.8.61,3.27,3.27,0,0,0-1.12,2.74A8,8,0,0,0,32,20.46s1.25,1.29,2.76,2.61c.75.67,1.56,1.35,2.28,1.91l.52.4.12.09.06.05,0,0h0l-1.37-1.3h0l-.08-.06C36.18,24.07,36.05,23.94,35.9,23.77Z"/><path class="cls-39" d="M43.91,31.4c.71.6,1.57,1.45,2.17,2,.24.21.14.13.25.28s-.35-.17-.66-.35c-1.91-1.21-2.2-.89-4.76-2.22a1.6,1.6,0,0,0-.54-.18l.32.3c0,.17-.23.2-.1.43.34.45-.77,0-2.06-.41a12.5,12.5,0,0,0-1.66-.41c-.94-.21-3.89-1.49-4.51-1.41s-.4.31-.19.58.51.48.11.47a8.88,8.88,0,0,0-.9,0,8.79,8.79,0,0,0-1.16.05,5.59,5.59,0,0,0-2.35.59c-.17.08-1.24.56-1.49.66s-.21-.2-.44-.29c-.58-.32,1-.69,1.61-.83s.36-.42.54-.63a3.83,3.83,0,0,1,1-.09c.77,0,.26-.18.07-.43-.41-.35.7-.25.7-.48s-1.37-1.17-.57-1.16c-.76-.05.27-1.07.48-.66-.1-.08.46.11.84.28s.6.29.7.36a31.12,31.12,0,0,0,3.36,1.85,2.65,2.65,0,0,1,1.62.06,9.72,9.72,0,0,0,2.11.69c-.06-.08-.6-.42-.66-.5a4.39,4.39,0,0,0-.57-.65c-.34-.37-.78-.86-1.19-1.37-.84-1-1.55-2.08-1.33-2a6.83,6.83,0,0,1,1.68.94c1.48,1.1,2.24,1.44,3.5,2.31l1.05.79c.92.63,2,1.34,2.21,1.44.63.36.87.38.61.11C43.8,31.44,43.89,31.37,43.91,31.4Z"/><path class="cls-40" d="M46.11,4.83a3.61,3.61,0,0,1-.53.12,3.53,3.53,0,0,1-1.27,0c-1-.17-2.16-.79-3.63-2.75l-.43-.35c-.3-.21-.72-.48-1.18-.74A8,8,0,0,0,37.58.46a2.65,2.65,0,0,0-1.14-.2q-.7-.32-1.44-.6h-.31c-.19,0-.48,0-.85,0a14.55,14.55,0,0,0-2.75.44C29,.63,26.88,1.92,26.75,3.17L25.27,4.28c-.72.56-1.45,1.15-1.78,1.13a2.25,2.25,0,0,0-.36.26,4.7,4.7,0,0,0-.77.89,4.28,4.28,0,0,0-.66,1.68,5.66,5.66,0,0,0-.1,1.13,2.37,2.37,0,0,0,.21,1.24"/><path class="cls-41" d="M41.51,32.36c-.31-.09-2.26-.64-3.36-1a52.19,52.19,0,0,0-5.09-1.48c-.12,0-.17,0,0,.08,1,.5.2.42.71.65.17.09.62.23.53.24a3.94,3.94,0,0,1-.49-.08c-.11,0-.84-.09-1.18-.16a6.76,6.76,0,0,0-1.27-.06,7.4,7.4,0,0,0-.95,0c-.08,0-.39.05-.62.1s-.5.09-.76.16a6.48,6.48,0,0,0-1.5.61c-.27.14-.54.33-.86.46s-.14-.08-.26-.12a7.3,7.3,0,0,1,.71-.46,3.36,3.36,0,0,1,1.13-.59,14,14,0,0,1,1.72-.25,3.63,3.63,0,0,0,.5-.09c.58-.13.87-.23.89-.51-.9-.37-.16-.36-.07-.47a2.07,2.07,0,0,1,.42,0c.14-.07-.18-.36.51-.18,1.55.43,2.87.88,4,1.22.93.26,3.35.93,3.71,1,.62.13.13-.36.51-.36l.3.22c.18.13.4.3.59.47C41.71,32.1,42,32.41,41.51,32.36Z"/></g></g><g class="cls-13"><g class="cls-5"><g class="cls-5"><path class="cls-14" d="M21.88,49.84a2,2,0,0,0,1.08,2c.69.48,1.5.8,1.65,1a2.26,2.26,0,0,0,1.89.38,7.47,7.47,0,0,0,2.4-.87,13.66,13.66,0,0,0,1.83-1.18c.45-.32.73-.47.78-.29a13.06,13.06,0,0,0,1.54,3.2c.79,1.26,1.74,2.36,2.1,2.36,1.81,0,3.1-1.53,3.41-3.69.21-1,0-1.47.33-1.49a21.24,21.24,0,0,1-.69-3.14,1.38,1.38,0,0,1,.12-.53,1.51,1.51,0,0,1,.11-.22l.06-.1.11-.17a2.29,2.29,0,0,0,.56-1.46,16.05,16.05,0,0,0,.3-3.8,3.21,3.21,0,0,0-.13-.83c-.06-.25-.12-.48-.19-.69a4.25,4.25,0,0,0-.43-.86,6.36,6.36,0,0,1-.93-1.41c-.09-.35.07-.57.44-.81s.42-.2.47-.42,0-.44.28-.6a3.08,3.08,0,0,0,.38-.56,1.12,1.12,0,0,1,.48-.49,4.19,4.19,0,0,0,1.62-.53.3.3,0,0,0-.11-.24c-.1-.11.06-.13.07-.2.6,0,1.68.43,1.85.18.05-.06-.11-.35-.43-.59a20.64,20.64,0,0,0-2.36-1.45c-.39-.22-.73-.37-1.18-.58s-.87-.41-1.31-.59a3.74,3.74,0,0,0-3-.06A6.86,6.86,0,0,1,32.14,31c-1.21-.18-2.65-.48-4.06-.77-2.13-.5-5.34-1.38-5.72-.13a7.34,7.34,0,0,0,.21,2.32,4.1,4.1,0,0,1-.6,2.79l-.68.79c-.22.23-.4.35-.58.53s-.35.37-.5.51a1.62,1.62,0,0,0-.35.22l-.33.12-.08,0,0,0h0l.26,0,1.72.17c1.21.13,2.43.28,3.67.47l1.87.31a3.18,3.18,0,0,0,.49.07l.31,0a13.53,13.53,0,0,1,2.37.52l.55.13a4.72,4.72,0,0,1,.45.16,3.25,3.25,0,0,1,.37.18l.11,0a.51.51,0,0,1,.16.09s.13.1.07.06a1.13,1.13,0,0,1-.11-.11v0h0L29,36.29l-.21-.23c-.13-.16-.26-.32-.39-.5l-.44-.65a4.24,4.24,0,0,1-.36-.61c-.21-.37.09.2.18.43a2.06,2.06,0,0,1,.18.61c0,.35-.08.41-.26.13a6.48,6.48,0,0,1-.34-1c-.07-.27-.14-.56-.19-.82l0-.19h0v0a4.12,4.12,0,0,1,.07.63.62.62,0,0,0,0,.13v.33c0,.33,0,.64,0,.93A7.74,7.74,0,0,1,27,36.9c-.06.12,0-.4,0-.42A8.47,8.47,0,0,1,26,38.55l-.67.55c-.21.16-.38.29-.52.42s-.39.42-.36.35.54-.94.62-1.16-.49.17-1.07.54a5.71,5.71,0,0,1-2.27.9c-.66.08-1-.2-.75-.75-.19.15-.48.33-.47.39l-.58,1.33a8.65,8.65,0,0,0-.42,1.45,2.87,2.87,0,0,0,0,1.4,1.63,1.63,0,0,0,.72,1,1.78,1.78,0,0,1,.75,0,1.85,1.85,0,0,0,.93.32c.24.1.24.87.21,1.83A18.11,18.11,0,0,1,21.88,49.84Z"/><path class="cls-15" d="M35,31.18a3.72,3.72,0,0,1,3,.06c.43.17.87.37,1.31.58s.78.37,1.17.58a20.64,20.64,0,0,1,2.36,1.45c.32.24.48.53.43.59-.16.24-1.24-.23-1.85-.18,0,.07-.17.09-.06.2a.3.3,0,0,1,.11.24,4,4,0,0,1-1.62.52,1.1,1.1,0,0,0-.47.49,3.27,3.27,0,0,1-.38.56c-.24.17-.22.4-.27.6s-.09.29-.48.42-.52.45-.43.81a5.86,5.86,0,0,0,.93,1.42,4.52,4.52,0,0,1,.43.86c.06.22.12.45.18.7l.09.38c0,.14,0,.3,0,.46a16.06,16.06,0,0,1-.34,3.82,2.4,2.4,0,0,1-.56,1.47,1.84,1.84,0,0,0-.17.25l-.11.21a1.59,1.59,0,0,0-.12.53l-.59-.28c-.39-.19-1-.44-1.63-.84.08-.45.15-.94.19-1.4,0-.24,0-.47,0-.69s0-.22,0-.35l.07-.42a5,5,0,0,0-.43-2.95c-.84-1.6-2.27-2.24-3.55-3.15l0-.87c0-.33,0-.65.08-1a8.24,8.24,0,0,1,.46-2A7.8,7.8,0,0,1,35,31.18Z"/><path class="cls-16" d="M37,46.69a6.42,6.42,0,0,1-.14.81,5,5,0,0,1-.58,1.43c-.56.87-1.39,1.12-2.15-.91,0,0-.13-.68-.37-1.69a36.07,36.07,0,0,0-1.07-3.66,23.65,23.65,0,0,0-1.51-3.51l-.35-.63-.15-.26,0-.06h0l1.06,1.22h0v0a.57.57,0,0,0,.11.12h0a1.4,1.4,0,0,0-.22-.14l-.13-.05a4.08,4.08,0,0,0-.42-.19,3.82,3.82,0,0,0-.8-.23c.05,0-.22-.08-.63-.19s-.13,0-.07,0l.24,0c.16,0,.28-.12.31-.21a.72.72,0,0,0-.32-.54,2.7,2.7,0,0,1-.34-.64,3.63,3.63,0,0,1-.29-.82,5.12,5.12,0,0,1-.21-1.17A6.7,6.7,0,0,1,29,33.2c.18-.52.43-.87.84-.81a7.09,7.09,0,0,1,1.05-.76,3.81,3.81,0,0,1,2.16-.5s.83.23,1.68.41,1.73.31,1.89,0a12,12,0,0,1,2.27.49c1,.3,1.82.69,1.59,1a4.79,4.79,0,0,1,0,.79,9.25,9.25,0,0,0-2.15.8c-1.1.54-2,1.45-2.47,1.44l-.19.16a3.19,3.19,0,0,0-.41.48,3,3,0,0,0-.51,1.81,8.49,8.49,0,0,0,.86,2.65,12.29,12.29,0,0,1,.6,2.37c.1.46.11,1.07.25,1.56S36.78,46.13,37,46.69Z"/><path class="cls-17" d="M37.6,47.72a6.85,6.85,0,0,1-.14,2.52c-.33,1.16-1.21,2-2.57.69a8.72,8.72,0,0,1-2.48-1.58,5.49,5.49,0,0,1-2-3.94s0-.68,0-1.7A24.68,24.68,0,0,0,30.05,40a14,14,0,0,0-1.16-3.62,4.09,4.09,0,0,0-.38-.62l-.08-.11.1.14.23.27.12.14.06.07q1.38,1.57,2.73,3.15h0l0,.06s.12.11.09.08l-.11-.08-.14-.07-.09,0-.29-.14-.4-.16a3.71,3.71,0,0,0-.45-.11l-.15,0-.31-.09-.65-.18a12.81,12.81,0,0,0-1.4-.26l-.36,0c-.16,0-.11,0-.59-.09-.74-.13-1.47-.25-2.19-.35l-1-.15.07,0,.21,0a5.08,5.08,0,0,0,.65,0l.47-.14a2.84,2.84,0,0,0,1-.49,3.62,3.62,0,0,0,.95-1,1.48,1.48,0,0,0,.3-1.1,5.58,5.58,0,0,0,.9-.48c.41-.33.74-.55.44-.93l.07.27c.05.17.11.4.19.79A11.25,11.25,0,0,0,29.21,36c.13.36.25.8.38,1.11.55,1.34.87,1.92-.13,1.61h0l.07,0,.44.12.27.08.14,0a3.63,3.63,0,0,1,.68.21,3,3,0,0,1,.41.19l.15.06a.6.6,0,0,1,.15.09l.09.06,0,0a.6.6,0,0,1-.08-.08l0,0h0l-.82-1h0v0l0,0,0,.07a25.6,25.6,0,0,1,1.62,3.87s.64,1.32,1.51,2.7S36.12,48,37.6,47.72Z"/><path class="cls-18" d="M38.76,54.07a13.86,13.86,0,0,1-.56,3c-.23.41-.77.53-1.11.82a2,2,0,0,1-1.64,0c-2.2-1.17-4.76-.67-6.35-2.92a1.1,1.1,0,0,0-.63-.39c-.06.1-.29.27-.35.37A20.72,20.72,0,0,0,26,55c-1.19.34-2.25-.78-3-2.08-.42-.64-1-1.19-1.39-1.83-.72-1.07.29-3.5-.18-4.23a1.91,1.91,0,0,0-1.52-.93,1.69,1.69,0,0,1-1.46-1,4.47,4.47,0,0,1,.06-2.48c.38-.78.63-1.4,1-2.06a5.06,5.06,0,0,1,1-.85c.29-.11.21.13.41.14.49,0-.52.82-.84,1.31s.18.68.29,1.06a4.1,4.1,0,0,1-.33.86c-.29.58.27.53.63.59.52,0,.32.89.73,1.11.24.17.65,0,1-.12s.61-.19.68.18c-.12-.63,1.53.42,1.1.55.06-.08,0,.42,0,.75a3.1,3.1,0,0,1-.2.61,16.36,16.36,0,0,0-1.38,2.81c0,.17,1.44.71,1.92,1.71.34.82.69,1.72,1.35,1.93.17-.06.29-.57.46-.63a9.49,9.49,0,0,0,2.35-2.15c1-1.09,1.6-2.27,1.83-2.13a2.68,2.68,0,0,1,.83,1.38c.31,1.47.95,2,1.5,3.1.13.31.13.74.25,1.05.42.81,1.07,1.71,1.52,1.77a2,2,0,0,0,2.19-.4C37.49,54.68,38.12,54.39,38.76,54.07Z"/><path class="cls-19" d="M22.39,31.27a3.54,3.54,0,0,1,.3,1.51,6.36,6.36,0,0,1-.44,2,3.91,3.91,0,0,1-.51.82,2.35,2.35,0,0,1-.83.74s-.34.32-.66.69c-.31.19-.58.32-.5.4-.08,0-.16,0-.23-.06l1.07.09,1.19.12s1.43.15,3.62.49l1.78.3.66.07c.46.07.94.16,1.44.28l.74.2.18.06.09,0,.16,0a5.09,5.09,0,0,1,.59.19c.16.06.39.19.43.2l.09,0a.83.83,0,0,1,.24.14l-.1-.09,0,0h0L29,36.28l-.18-.19a6.55,6.55,0,0,1-.42-.53l-.22-.33-.2-.28"/><path class="cls-20" d="M24.84,55.82a10.62,10.62,0,0,1-2.77-2.57,4.05,4.05,0,0,1-.57-1,13.83,13.83,0,0,1-.89-5.07c0-.13-.11-.21-.24-.14-.92.42-1.14-.48-1.83-.46-.27,0-.69.09-.84-.14a3.13,3.13,0,0,1-.49-2.12,5.55,5.55,0,0,1,.78-2.4,12.38,12.38,0,0,1,1.73-2,2.77,2.77,0,0,1,.63-.46c.19-.11.14.05.24.07a6.51,6.51,0,0,0-.45.52c-.29.38-.2.62-.53,1.06a6.08,6.08,0,0,0-.77,1.34,1.19,1.19,0,0,0,0,.68,2.6,2.6,0,0,0,.37,1.15,2.56,2.56,0,0,0,.75.85c.73-.42.74.29,1,.53.07.08.06.3.12.46.24.24.7.11.65.72A8.82,8.82,0,0,0,22,50.56a7.35,7.35,0,0,0,1.34,2.15,8.18,8.18,0,0,0,1.78,1.65c.93.59,1.85.06,2.72.3a1.49,1.49,0,0,1-.55.92A2.21,2.21,0,0,1,24.84,55.82Z"/></g></g></g><g class="cls-13"><g class="cls-5"><g class="cls-5"><path class="cls-21" d="M61.57,44.66c1.39-.44,1.26-1.72,1.56-2a.55.55,0,0,0,.16-.43,2.74,2.74,0,0,0-.26-.76,7.71,7.71,0,0,0-1.14-1.6c-.87-1-1.81-1.63-1.5-1.8a14.29,14.29,0,0,0,2.55-1.9c1-.89,1.85-1.87,1.82-2.16-.06-1.44-1.45-2.09-3.16-2-.78,0-1.22.28-1.24,0a21,21,0,0,1-2.56,1.07c-.68.11-.88-.35-1.61-.08-1.18.25-3.39,0-4.25.19a4.52,4.52,0,0,1-1.74.09c-.38-.09-.55-.31-.72-.75-.12-.78-.72-.58-1-1A2.5,2.5,0,0,0,48,31.1a1,1,0,0,1-.42-.41,1.9,1.9,0,0,0-.38-1.3.5.5,0,0,0-.32.05c-.15.07-.17-.07-.25-.08.06-.52.68-1.32.47-1.53-.06-.07-.42,0-.74.22a16,16,0,0,0-3.65,3.43,2.38,2.38,0,0,0-.54,1.35,6.36,6.36,0,0,0,.2,1,3.91,3.91,0,0,1-.51,2.18c-.37,1-.89,2.07-1.4,3.19-.41.85-1,1.86-1.34,2.77s-.42,1.7.11,2c1.22.54,2.91-.11,3.23,1.09l.14.66.06.32c0,.09,0,.14-.07.21-.13.26-.25.47-.33.61l-.26.4c.16-.17-.33.33.89-1,.48-.39,0,.13,1-.66,1.37-1.07,3.07-2,3.6-1.87.33,0,.42.23.23.55a12.68,12.68,0,0,1-2,1.31c-.89.49-.25.31.47.17A9.54,9.54,0,0,1,48,45.59a2.67,2.67,0,0,1,1.34.16c.15.18-.26.47-.2.71.38.5,1.6.63,2.28,1,1.44,1.68,2.21,1.18,2.11,1.29.07.19-.84.56-.94.87s.64.6,1.26.62a16.4,16.4,0,0,1,2.33.29c.64.17.92.39.87,1,.13-.17.35-.36.33-.42.36-1.65,2.28-2.91,1.77-3.81-.17,0-.43-.11-.5-.21a1.35,1.35,0,0,0-.36-.55C58.13,46.24,60.35,45,61.57,44.66Z"/><path class="cls-22" d="M42.43,33.86a6.56,6.56,0,0,1-.2-1,2.38,2.38,0,0,1,.54-1.35A15.72,15.72,0,0,1,46.41,28c.32-.22.69-.29.74-.23.22.22-.41,1-.46,1.53.08,0,.1.15.25.08a.48.48,0,0,1,.31-.05,1.81,1.81,0,0,1,.38,1.3,1,1,0,0,0,.42.4,2.24,2.24,0,0,1,.49.42c.25.46.85.26,1,1.05.18.43.34.65.73.75a4.58,4.58,0,0,0,1.74-.1c.86-.17,3.08.07,4.25-.17.73-.27.94.19,1.61.08L57,35a18.46,18.46,0,0,0-8.82,2.69A17.62,17.62,0,0,1,42.43,33.86Z"/><path class="cls-23" d="M56.59,34.26a4.61,4.61,0,0,1,1.91.19c.72.33,1,1-.66,1.92,0,0-2.21.84-4.38,1.88-2.34,1.11-4.57,2.56-4.93,2.44a2.86,2.86,0,0,0-.92-.14,2.11,2.11,0,0,0,.13-.68c0-.31-.2-.57-.73-.31l-.5.13a2,2,0,0,1-.62,0,5.77,5.77,0,0,1-.8-.07c-1.15-.18-2.38-.71-2.12-1.38a6.8,6.8,0,0,1-.57-1,2.65,2.65,0,0,1-.25-1.91s.36-.6.65-1.23.54-1.26.22-1.46c0,0,.06-.22.17-.53A6.68,6.68,0,0,1,43.73,31c.45-.76,1-1.37,1.39-1.11l.39.06c.19,0,.44.07.58.11l.17.57c.13.33.3.78.5,1.2.41.87,1.05,1.87.92,2.29a3.82,3.82,0,0,0,.42.72,3.39,3.39,0,0,0,1.38,1.09C50.74,36.41,52.81,36.12,56.59,34.26Z"/><path class="cls-24" d="M57.45,33.63s.28-.1.69-.2a5.75,5.75,0,0,1,1.42-.14c.91.08,1.63.64.64,2a5.62,5.62,0,0,1-.28.75A9.28,9.28,0,0,1,59,37.6,5.5,5.5,0,0,1,55.89,40l-1.41.27c-.84.18-2,.46-3.15.82a31.52,31.52,0,0,0-3.28,1.22,8,8,0,0,1-1.94.73s0,0-.19.1a8.62,8.62,0,0,0-1,.86,3,3,0,0,1-.5.3c-.18.06-.2-.06.27-.9a7.57,7.57,0,0,0,.39-1.19,1,1,0,0,0,0-.45,2.08,2.08,0,0,0-.17-.48c-.13-.28-.29-.44-.52-.44a4.09,4.09,0,0,0,0-.79c0-.37-.15-.69-.54-.52l2.55-.07c.85-.18,1.73-.11,1.28.68,0,0-.12.55.41.51S50,40,53.3,38.38l.68-.46c.4-.29,1-.68,1.5-1.14C56.59,35.86,57.67,34.68,57.45,33.63Z"/><path class="cls-25" d="M62.63,31.65a14.22,14.22,0,0,1,2.43-.11c.34.09.49.48.73.69s.17.9.08,1.28c-.85,2-.22,3.89-1.89,5.61a1,1,0,0,0-.25.58c.1,0,.28.15.37.17a7.87,7.87,0,0,0,.48,1.49.83.83,0,0,1,.2.54.86.86,0,0,1-.19.42,5,5,0,0,1-1,.94,10.31,10.31,0,0,0-1,1.05c-.54.58-2.76,1.18-3,1.69-.57.87,1.07,1,.7,1.72a7.83,7.83,0,0,1-1,1.39,6,6,0,0,0-1.14,1.46,11.39,11.39,0,0,1-.76.9c-.24.13-.23-.14-.43-.16-.51-.12.39-.84.71-1.2s0-.58,0-.9a2.23,2.23,0,0,1,.56-.55c.46-.33,0-.4-.22-.56-.41-.17.26-.68.12-1s-1.36-.4-.94-.87c-.42.41-.45-1.21-.13-1-.09,0,.3-.2.58-.28a3.51,3.51,0,0,1,.55-.12,13.87,13.87,0,0,0,2.72-.36,2.32,2.32,0,0,1,.75-1.37c.3-.2.61-.39.87-.58a1.7,1.7,0,0,0,.31-.28.85.85,0,0,0,.12-.37c-.09-.11-.55-.05-.64-.15a9.38,9.38,0,0,0-2.22-1.27c-1.06-.51-2.08-.87-2-1.09a2.69,2.69,0,0,1,1.09-1,11.64,11.64,0,0,0,2.48-1.86c.25-.17.6-.24.85-.41.65-.5,1.36-1.2,1.37-1.57A1.4,1.4,0,0,0,63.42,33Z"/><path class="cls-26" d="M40.24,44.23a2.45,2.45,0,0,1,.41,0,3.25,3.25,0,0,1,.85.08,1.57,1.57,0,0,1,.84.54,2.35,2.35,0,0,1,.33,1.33,7.53,7.53,0,0,1-.43.83l-.23.34s0,.06,0,0,.29-.33.83-.9c0,0,.47-.39.28-.17,0,0,0,0,.18-.11s.63-.49,1.6-1.17"/><path class="cls-27" d="M65.55,41.81a9.32,9.32,0,0,1-2,2.16l-3.31,2.18c-.07.07-.08.13,0,.14.8.07.38.49.82.61.17.05.51.05.49.16a2.13,2.13,0,0,1-.65,1l-.62.61c-.23.2-.48.41-.74.67A9.18,9.18,0,0,0,58,51a3.48,3.48,0,0,1-.44.54c-.13.14-.13,0-.23-.05a5.12,5.12,0,0,1,.3-.55c.21-.36.15-.56.47-.9s.66-.62.91-.92a.94.94,0,0,0,.2-.41,1.63,1.63,0,0,0,.1-1.35c-.7,0-.3-.36-.32-.58s.14-.17.22-.27-.31-.33.14-.58a29.47,29.47,0,0,0,2.67-1.55,11.63,11.63,0,0,0,2.2-2.3,1.29,1.29,0,0,0-.07-1,2.13,2.13,0,0,1-.23-1,1.32,1.32,0,0,1,.87.17,1.34,1.34,0,0,1,.56.55,1.38,1.38,0,0,1,.17.47A1.08,1.08,0,0,1,65.55,41.81Z"/></g></g></g><g class="cls-13"><g class="cls-5"><g class="cls-5"><path class="cls-28" d="M45.79,30c.05,0,.29.14.25.16l-.75-.35Z"/><path class="cls-28" d="M42.91,25.35c-.2-.33-.41-.66-.65-1-.06-.14-.12-.29-.2-.44L42,23.77c-.09-.2-.22-.43-.3-.62s-.24-.37-.23-.44l.2.12c0-.11.06-.11.11-.16l.39.24-.41-.47.18-.11-.19-.14a1.27,1.27,0,0,0,.23-.43,6.31,6.31,0,0,0,.88-.38l.56.4.15-.12-.57-.4a1.75,1.75,0,0,0,.2-.44l.15-.12c.83.34.06-.11.15-.12l.75.23.07-.07.49.1c.23-.33.7-.33,1-.58,0-.26-.11-.83,1.19-.24-.44-.43-.13-.43-.07-.55.59.35.4.11.68.19l.1-.1.14-.15.15-.16.48-.51a1.22,1.22,0,0,0,.37-.07.78.78,0,0,0,0-.29c0-.09,0-.19,0-.27a3,3,0,0,1-.24-.4l0,0a.78.78,0,0,0,0-.34.9.9,0,0,0,0-.37,1,1,0,0,0,.34-.06c-.68-.43-.38-.44-.14-.44a2,2,0,0,1,.17-.55l-.66-.53.82.34c0-.19.1-.35.14-.53L48,14.67a6.53,6.53,0,0,0-1.09-.7c0-.08,0-.17,0-.25.45-.06.88,0,.29-.36a2.87,2.87,0,0,1-.14-.54c.61,0,.6-.13,0-.36l.09-.11.2-.26c.59,0-.08-.27-.24-.35l.15-.21.19-.26c.28-.08-.26-.24-.28-.36h.55l0,0c-.79-.34-.45-.35-.28-.37l0,0c-.76-.3-.49-.31-.33-.31l-.79-.33.57-.05c0-.06.09-.09.06-.17l-.87-.34a.77.77,0,0,1,.4-.05c.26,0,.91.05,1.35.07l1.44.4a.43.43,0,0,0,.09.2h-.09l-1.45-.38c-.14,0-.29,0-.31.09.49.24.37.31.72.49a4.68,4.68,0,0,0-.54,0c0,.09,0,.17.09.26l.32.23c1,.4.7.4.75.49l.61.21,0,.05a1.57,1.57,0,0,1-.39.17c-.25,0,.5.37.91.57a1,1,0,0,1,.1.24,1.26,1.26,0,0,1-.3,0l.39.22a6.47,6.47,0,0,1-.79.34l.73.43-.55.07a.86.86,0,0,0,0,.3l-.06.09.38.15a1.66,1.66,0,0,1-.4.17l-.38-.16c-.37.05.31.33.4.49a.63.63,0,0,1,.06.29c1.1.4,1.42.34.79,0l.05-.06,1,.18c1.34.83,0,.52.6,1-.23.15,1.61,1,.48.76-.54,0-.49.14.16.47a2.83,2.83,0,0,1-.21.62c-.75-.29-.17.06-.35.08,1.27,1.06-1,.39.2,1.44-.69-.15-.22.19-.09.45a2.34,2.34,0,0,1-.45.18c1.14.81-1-.07-.61.42a2.07,2.07,0,0,0-.42.14c0,.18.66.79-.08.41,0,.15-1.09-.4-.85-.06s-.27.4.32.89c-.86-.21.11.92-1.08.53.56.58-.19.55-.28.83l-.13.12c-.42-.28-.42-.16-.46-.12s-.24,0,.09.23,0,.14-.74-.23l-.19-.13-.6-.6c-.61-.28-.66-.24-1.1-.44l.55.41c.1.13.25.3.4.46l-.83-.39c-.55-.17.66.54.76.75l-1.15-.42c.09.33-.87-.13-.46.39l-.95-.6a.57.57,0,0,0,0,.25,1.87,1.87,0,0,0-.44.06c.5.45.57.73-.2.15l-.26.19.72.79c.69.48,1,.88.7.8l-.73-.51a2.3,2.3,0,0,1,.19.33l-.67-.39s-.1,0-.1.07,0,.19.09.31c.28.43.43.6.61.84l.58.49.6.69c.1.33-.19.25-.22.43s-.66-.42-1-.65l.13.34-.42-.27A3.84,3.84,0,0,1,42.91,25.35Z"/><path class="cls-28" d="M53.52,33.22c.09-.17.44,0,1.09.42C54.62,33.86,54.34,33.93,53.52,33.22Z"/><path class="cls-29" d="M51,29.93l-.41-.48c.52,0-.06-.81.75-.62-1.15-1-1.52-1-2.15-1.59s0-.21-.35-.54l-.18-.13c-.93-.8-1.23-1-1.52-1.24,0-.13-.1-.27-.17-.43l1.24.65c.83.64.16.38.91.92l.2.36c1.09.48,1.06.16,1.3.07l.82.4c.21.17.45.38.65.56,0,.09,0,.16.07.24a1.93,1.93,0,0,0-.19.47,2.18,2.18,0,0,0,0,.25l1,.86.35.59a4.68,4.68,0,0,0-.59-.07c-.26,0,0,.32.09.51l-.07.06c-.26,0-.49,0-.7,0Z"/><path class="cls-30" d="M48.55,31a7,7,0,0,0,.91,0c.25,0,.48,0,.72,0l.15,0,1.1.77c.57.21-.42-.5-.4-.65h.38c.13,0,.28,0,.34,0a.45.45,0,0,0,.33,0l1.09.73c.16-.16.43-.27-.46-1.07l.07-.06c-.05-.19-.35-.53-.09-.51a4.68,4.68,0,0,1,.59.07l-.35-.59.23-.21a6.52,6.52,0,0,0-1.22-.9,1.93,1.93,0,0,1,.19-.47l1.79,1.29c1.49.65.35-.64,1.39-.45s.17-.92,1.29-.66c.22.95-.77,1.15-.45,2L56,30.13c0,.39-.86.2-1,.6.1.33.37.76-.53.17l-.17.15a.65.65,0,0,1,.12.2,1.74,1.74,0,0,1-.42.08l.87.67a2.89,2.89,0,0,0,.54,1c-.11.13-.29.2-.36.37s0,.21,0,.28-.19.07-.39,0c-.65-.42-1-.59-1.09-.42l-5.12-2A.66.66,0,0,0,48.55,31Z"/><path class="cls-31" d="M55.41,33a2.89,2.89,0,0,1-.54-1L54,31.33a1.74,1.74,0,0,0,.42-.08.65.65,0,0,0-.12-.2l.17-.15c.9.59.63.16.53-.17.1-.4,1-.21,1-.6l.19.13c-.32-.83.67-1,.45-2-1.12-.26-.33.73-1.29.66s.1,1.1-1.39.45L52.13,28.1c0-.08,0-.15-.07-.24l.68.23c.17,0-.49-.4-.62-.59l.24-.23.52-.48c-.22-.29.1-.29.13-.45a4.43,4.43,0,0,0,.56.08c.69.2.84.17.65,0,.21,0,.47.1.72.17a3.08,3.08,0,0,0-.27-.38,4.41,4.41,0,0,0,.6,0c-.12-.21-.23-.41-.32-.59.12-.05.27-.08.39-.14l.14-.16c1.23.59-.45-.44.28-.31a3.81,3.81,0,0,1-.32-.24c-.61-.53,0-.41-.07-.59l.77.15.33-.1-.12-.49,0,0a2.9,2.9,0,0,1,.5-.24c.27-.17-.29-.49-.51-.78.56,0,.06-.28.08-.37.51,0,.56-.05.6-.1l.37-.45c-.18-.14-.52-.36-.48-.42l.06-.06a2.28,2.28,0,0,1,.36-.1c.23,0,.85.09.44-.27a3.57,3.57,0,0,0,.52-.3A6,6,0,0,1,58,20a3.06,3.06,0,0,0-.19-.49c.57-.17-.09-.56.06-.77l-.4-.6-.16-.46c.24.05,0-.18.14-.2.83-.17.64-.53.13-1a3,3,0,0,0-.2-.51l.13-.2c.64,0,.31-.14.18-.27l-.39-.15.2-.3-.19-.11a3.4,3.4,0,0,1,.34-.12c-.07-.06-.1-.1-.17-.15a1,1,0,0,0-.06-.32l.3,0a.7.7,0,0,0-.09-.28l.25-.41c.41.35,1.3.79.4.63a2.16,2.16,0,0,0,0,.27c.34.29.25.43,0,.49l1,.44-.09.15c1,.39.7.41.69.51l.6.32c.08.13.15.26.22.4-.3,0-1-.27-.95-.11.93.39,2.92,1.05,2.56,1.27s0,.76-.6.92c.4.28.91.58.58.66-.5-.22-.48-.09-.53,0s.49.48.15.58l-.26,0c.55.39.81.48.88.62.67.07.31-.12.39-.17l0-.06.54-.06-.16.22,1.39.69-.08.12a8.07,8.07,0,0,1-1.53-.09l-.06.07c.24.21.45.4.64.59h-.21l.24.36-.16.22a1.94,1.94,0,0,1,.18.14l-.17.22h-.55l-1.16-.56-.47-.13,0,0,.93.94.4.14c-.15.13-.34.23-.49.36.1.15.26.32.4.5-.22.06-.45.14-.72.19.33.53.42.86-.26.7a3.18,3.18,0,0,1-.52.28l-.09.1a.63.63,0,0,1,.08.26l-.5,0a7,7,0,0,0,.85.67,2.19,2.19,0,0,0-.46.21c-.18.42-.38.85-.58,1.28,0,.16.55.61.52.78l-.07.08-.77-.16-.43.48a1.89,1.89,0,0,1-.1.44l-.13.13A32.87,32.87,0,0,1,56.78,32c-1.12-.5-.34,0-.22.2l-1,.34A3.62,3.62,0,0,1,55.41,33Z"/><path class="cls-28" d="M51.93,28.82a2.18,2.18,0,0,1,0-.25,6.52,6.52,0,0,1,1.22.9l-.23.21Z"/><path class="cls-32" d="M43.89,25.3c-.18-.24-.33-.41-.61-.84-.05-.12-.11-.24-.09-.31s.05-.07.1-.07l-.31-.3,1,.69a2.3,2.3,0,0,0-.19-.33l.73.51c.27.08,0-.32-.7-.8l-.72-.79.26-.19c.77.58.7.3.2-.15a1.87,1.87,0,0,1,.44-.06.57.57,0,0,1,0-.25l.95.6c-.41-.52.55-.06.46-.39l1.15.42c-.1-.21-1.31-.92-.76-.75l.83.39c-.15-.16-.3-.33-.4-.46l-.55-.41-.14-.17c.42.21.84.43,1.24.61l.79.73c.78.37,1,.42.74.23s-.09-.17-.09-.23,0-.16.46.12l.13-.12c.09-.28.84-.25.28-.83,1.19.39.22-.74,1.08-.53-.59-.49.06-.44-.32-.89s.83.21.85.06c.74.38.09-.23.08-.41a2.07,2.07,0,0,1,.42-.14c-.38-.49,1.75.39.61-.42a2.34,2.34,0,0,0,.45-.18c-.13-.26-.6-.6.09-.45-1.21-1.05,1.07-.38-.2-1.44.18,0-.4-.37.35-.08a2.83,2.83,0,0,0,.21-.62c-.65-.33-.7-.49-.16-.47,1.13.23-.71-.61-.48-.76-.55-.46.74-.15-.6-1l-1-.18-.05.06c.63.34.31.4-.79,0a.63.63,0,0,0-.06-.29c-.14-.17-.25-.32-.4-.49l.38.16a1.66,1.66,0,0,0,.4-.17l-.38-.15.06-.09a.72.72,0,0,1-.09-.24l0-.06.55-.07-.77-.38,0,0a6.47,6.47,0,0,0,.79-.34l-.39-.22a1.26,1.26,0,0,0,.3,0l.6.22.94.21.76.38c.31.34,1.35,1,1.48,1.25-.82-.23-.37.06-.67.17l.43.16a5.38,5.38,0,0,0,.08.66c-.37,0,.5.3.72.46l-.11.15c.29.29.6.63.94.92-.75.64-.64,1.46-.52,2.45,0,.21-1.13-.31-.34.43,0,.09,0,.2,0,.29-.66,0-.54.3-1.21.12.15.31.92.64.83.68l-.1.12c-.51,0,0,.27,0,.38-.6-.07-.09.23-.21.23l0,0-.32.36-.07.09-.8-.06c-.06.14-.09.31-.15.44l-.14.14L52,22.49c-.71,0-.61.71-1.27.68.37.46-.24.37-.24.55-.74-.4-.38,0-.8-.15-.1,0-.22,0-.32.05-.33.08-.1.61-1.12.14a6.57,6.57,0,0,1,.45.73l-.59-.31L48,24.3a4.37,4.37,0,0,0-.75-.47c-.06.17.24.44.83,1-.21-.06-.38-.08-.55-.12,0,.09,0,.16.05.25l.62.59-1.24-.65c.07.16.12.3.17.43a.74.74,0,0,0,0,.3l-.05.05-.23.19-.66-.34c-.07.16.36.73-.43.31a3.06,3.06,0,0,1-.32.05.3.3,0,0,0-.18.15c0,.12-.6-.26-.75-.25Z"/><path class="cls-33" d="M49.09,26.47a2.13,2.13,0,0,1,.33,0c.32.07-.26-.37-.6-.67a1.39,1.39,0,0,0,.36,0l-.6-.61-.52-.37c-.59-.56-.89-.83-.83-1a4.37,4.37,0,0,1,.75.47l.13-.12.59.31a6.57,6.57,0,0,0-.45-.73c1,.47.79-.06,1.12-.14.1,0,.22,0,.32-.05.42.15.06-.25.8.15,0-.18.61-.09.24-.55.66,0,.56-.64,1.27-.68l.16.09.14-.14c.06-.13.09-.3.15-.44l.8.06.07-.09.32-.36,0,0c.12,0-.39-.3.21-.23,0-.11-.49-.4,0-.38l.1-.12c.09,0-.68-.37-.83-.68.67.18.55-.09,1.21-.12,0-.09,0-.2,0-.29-.79-.74.29-.22.34-.43-.12-1-.23-1.81.52-2.45-.34-.29-.65-.63-.94-.92l.11-.15c-.22-.16-1.09-.47-.72-.46a5.38,5.38,0,0,1-.08-.66l-.43-.16c.3-.11-.15-.4.67-.17-.13-.29-1.17-.91-1.48-1.25l-.76-.38-.94-.21-.6-.22a1,1,0,0,0-.1-.24c-.41-.2-1.16-.52-.91-.57a1.57,1.57,0,0,0,.39-.17l0-.05.3-.07c-.23-.29-.79-.64-.7-.86S49,10.13,49,10s.12-.14.34-.16h.09l.59.18a.23.23,0,0,0,0,.21,4.58,4.58,0,0,0,.8.32c0-.14.47-.06.88,0s.76.09.74,0,.05-.08.1-.12c.49,0,1,0,1.35,0a2.55,2.55,0,0,0-.27.4,2.51,2.51,0,0,1-.34.42c-.09.14-.22.28-.68.28-.27.1,1.07.57.86.65a7.08,7.08,0,0,1,1.33,1.15l1,.47a.89.89,0,0,0,.06.3l0,0-1.2-.12,1.36.62.77,0,.61.23.19.11-.2.3c-.13.05-.23.12-.36.16l.57.26-.13.2a3,3,0,0,1,.2.51c.51.44.7.8-.13,1-.18,0,.1.25-.14.2l.16.46a2.1,2.1,0,0,1-.45.23c.07.29.14.58.2.87l-.33.07c-.28,0,.24.28.27.39-.14.25-.24.53-.39.79a3.74,3.74,0,0,1,0,.75l.21.1-.06.06a5.45,5.45,0,0,1-.56,0c0,.17-.39.19-.11.48l-.46-.14.43.53-.33.05c.16.15.55.4.46.43l-.5,0c-.13,0,0,.14.07.26a2.1,2.1,0,0,0-.48.2l-.16.18.37.2a1.13,1.13,0,0,1,0,.3l-.2-.11a.66.66,0,0,1,0,.3l-.17.19c.08.18-.54.06.07.59l-.8-.13c.29.28-.18.19.15.51l-.87-.34.44.46a1.7,1.7,0,0,1-.45.15l.19.12-.17.17-.29.3-.35-.23c-.61-.65-.48-.78-.32-.94l-.35-.22c-.81-.08-.47.47-1.15.2-.43.1-1,.3-.67.94L50,25.4l.1.2c-.13,0-.22,0-.36,0l.72.5,1.07,1.08.62.29c.13.19.79.55.62.59l-.68-.23c-.2-.18-.44-.39-.65-.56l-.82-.4c-.24.09-.21.41-1.3-.07Z"/><path class="cls-28" d="M47.56,25c0-.09,0-.16-.05-.25.17,0,.34.06.55.12l.52.37.6.61a1.39,1.39,0,0,1-.36,0c-.19-.07-.41-.17-.64-.27Z"/><path class="cls-28" d="M65.61,20.06a.63.63,0,0,0-.11-.24,3.07,3.07,0,0,0,.52-.39l.6.24.23-.36c.18,0,.33.06.48.08.76.4.61.64-.07.53l.57.28a5.22,5.22,0,0,1-.6.52c-.14.13-.31.24-.45.38l-1.26-.48C65.54,20.42,65.6,20.25,65.61,20.06Z"/><path class="cls-30" d="M52.08,9.8c-.71-.17-.37-.2-.12-.24s.45-.09-.43-.26l-.69-.16L50.39,9h.79L51,8.92l.85-.06a5.54,5.54,0,0,1,1,.17l-.46.05.67.15h.06l.39.11.62-.1.26,0,.61.09c-.21.07-.34.16-.52.23l-.06,0L54,9.52h-.39a.66.66,0,0,0-.17.25l1.1.22.11,0,.51.17h.4l.63.14.11,0c.06.09.12.18.2.28s-.55,0-.93,0L55,10.43l-.45-.08L54,10.09,53.45,10l-.21-.09C52.88,9.87,52.52,9.85,52.08,9.8Z"/><path class="cls-28" d="M49.82,8.76,51,8.92l.14.11h-.79l-.76-.14Z"/><path class="cls-28" d="M56.15,9.16a1.49,1.49,0,0,1-.37.05h-.05a.07.07,0,0,0,0,0l-.39-.07c-.2,0-.62,0-.16,0l.4,0,.08,0c.34,0,.71-.12.31,0,.41-.08.3-.19.23,0a.42.42,0,0,0,.18.17l.05.13-.05.06A.63.63,0,0,1,56.15,9.16Z"/><path class="cls-29" d="M43.9,26.26c.29.23.77.79,1,.65.06.21.1.39.15.59a2.13,2.13,0,0,1-1-.9Z"/><path class="cls-29" d="M48.25,30.69l-.34-.43c.1-.49.74.43,1,.27l.37.06.87.41c-.24,0-.47,0-.72,0a7,7,0,0,1-.91,0Z"/><path class="cls-29" d="M51,31.15c-.32-.44-1.67-1.4-.75-1,.5.27,1,.68,1.47,1-.06.06-.21.05-.34,0Z"/><path class="cls-29" d="M40.46,21.8a1.69,1.69,0,0,1,.61.33.61.61,0,0,0,.16-.09.53.53,0,0,1,0-.23l.53.38.19.14-.18.11.41.47-.39-.24s-.14,0-.11.16l-.2-.12Z"/><path class="cls-29" d="M48.24,28c-.38-.63-.18-.66.37-.29C48.91,28.24,48.91,28.42,48.24,28Z"/><path class="cls-29" d="M55.6,32.57l1-.34.44.21a4.39,4.39,0,0,0-.22-.41,32.87,32.87,0,0,0,2.7-2.39l1.06.79c-.39.15-.93.2-.46.82-.62,0,.17.86-.16,1.07a6,6,0,0,0-.94-.59c-.36.16,1.34,1.73-.28.91a5.16,5.16,0,0,0,.18.7,4.58,4.58,0,0,1-.62,0,3.65,3.65,0,0,1-.41-.18c-.15,0-.27.08-.43.1s.6,1.06-.58.23c.11.21.26.44.13.49a14.88,14.88,0,0,0-1.56-1A3.62,3.62,0,0,0,55.6,32.57Z"/><path class="cls-29" d="M42.83,21.38l.14-.12.57.4-.15.12Z"/><path class="cls-29" d="M43.17,20.82c-.42-.4-.55-.57.15-.12Z"/><path class="cls-29" d="M44.29,20.74c-.8-1,.25-.69.44-1-.32-.68.35-1,.88-1.16.38.18.23,0,.31,0l-.17-.13c0-.79,1.31-.79.61-1.87.4.14.26,0,.36-.07-.58-.55.17-.59.21-.91-.73-.45.15-.31-.26-.66.41-.2-.75-1,.24-1a6.53,6.53,0,0,1,1.09.7l1.23.54c0,.18-.11.34-.14.53l-.82-.34.66.53a2,2,0,0,0-.17.55c-.24,0-.54,0,.14.44a1,1,0,0,1-.34.06.9.9,0,0,1,0,.37.78.78,0,0,1,0,.34l0,0a3,3,0,0,0,.24.4c0,.08,0,.18,0,.27a.78.78,0,0,1,0,.29,1.22,1.22,0,0,1-.37.07l-.48.51-.15.16-.14.15-.1.1c-.28-.08-.09.16-.68-.19-.06.12-.37.12.07.55-1.3-.59-1.19,0-1.19.24-.27.25-.74.25-1,.58Z"/><path class="cls-29" d="M59.71,29.07l.43-.48.77.16c.93.65-.12.34.64.91.44.4-.38.15-.71.12l-.23.25a11,11,0,0,0-1-.52A1.89,1.89,0,0,0,59.71,29.07Z"/><path class="cls-29" d="M61,26.61a2.19,2.19,0,0,1,.46-.21l.45.09c-.21-.38-1-.67-.8-.73a.63.63,0,0,0-.08-.26l.09-.1a3.18,3.18,0,0,0,.52-.28c.68.16.59-.17.26-.7.27-.05.5-.13.72-.19-.14-.18-.3-.35-.4-.5.15-.13.34-.23.49-.36l.32-.43h.55l.17-.22a1.94,1.94,0,0,0-.18-.14l.16-.22,1.37.33c.23,0-.33-.32,0-.32l.21-.31.16-.23-.77-.39.08-.12c.2,0,.4-.11.65-.16a2.72,2.72,0,0,1,.08-.51l0,0,1.26.48.44.49c0,.07-.11.15-.37.14a2.19,2.19,0,0,1,.23.46c.32.25,0,.26,0,.41l-.16.23c-.4.26-.74.53-1.1.79a1.43,1.43,0,0,1,.15.18,5.93,5.93,0,0,1-.7.18l-.11.15c-.72-.08-.82,0-.62.16,0,.08,0,.19,0,.27-.41,0,.87.49.68.59l-.93-.26c-.09.12-1.16-.13-.06.45-.36-.05-.5.12-.29.37-.35,0-.2.12.15.54-1-.51-1-.44-.35.08-.86-.07-.87.36-.85.69-.21,0-.62,0,0,.41-.17.34-.55.39-.44.87,1.07.49.36.49.15.45-1.26-.54-.42.41-1.61-.08,0-.17-.54-.62-.52-.78C60.66,27.46,60.86,27,61,26.61Z"/><path class="cls-29" d="M46.89,13.72c-.38-.31-.44-.58.29-.36S47.34,13.66,46.89,13.72Z"/><path class="cls-29" d="M47,12.82c-.45-.28-.34-.43,0-.36C47.64,12.69,47.65,12.84,47,12.82Z"/><path class="cls-29" d="M47.13,12.35c-.52-.34-.47-.41-.19-.41l.15-.2c.16.08.83.37.24.35Z"/><path class="cls-29" d="M47.24,11.53c-.56-.35-.51-.42-.24-.41a2.77,2.77,0,0,0-.28-.37l-.22-.36c.16-.14-.71-.53-.52-.71a2.18,2.18,0,0,1-.29-.36c0-.07.41,0,.44-.07l.87.34c0,.08,0,.11-.06.17l-.57.05.79.33c-.16,0-.43,0,.33.31l0,0c-.17,0-.51,0,.28.37l0,0h-.55c0,.12.56.28.28.36Z"/><path class="cls-29" d="M46.93,9c-1.45-.43.26-.13.78-.11-.16-.14,1.22,0,.57-.18a8.76,8.76,0,0,1,1.35.19l.76.14c-.48,0-.91,0-1.28.07l-.4,0h-.13l-.2,0Z"/><path class="cls-29" d="M49.82,8.76c-.33-.07-.8-.16-.52-.14-.16-.07,0-.08.16-.1.77.1,1.29.21,2.35.32a.45.45,0,0,1-.1-.09,9.36,9.36,0,0,0,1.14.11c.45,0,.87,0,1,.06l.07,0c.41,0,.91.06,1.15.06l.12,0c-.46,0,0,0,.16,0l.39.07a.07.07,0,0,1,0,0,6.34,6.34,0,0,1-.69.17l-.61-.09-.26,0-.67-.06L52.89,9a5.54,5.54,0,0,0-1-.17L51,8.92Z"/><path class="cls-29" d="M57.23,9.68a1.21,1.21,0,0,1-.41-.25c-.19-.2-.18-.2-.1-.16a3.07,3.07,0,0,1,.64.45Z"/><path class="cls-32" d="M50.33,31c-.13-.23.18-.31.7.12,0,.15,1,.86.4.65Z"/><path class="cls-32" d="M52.08,31.11c-.5-.44-.23-.39-.07-.34s.44,0,.7,0c.89.8.62.91.46,1.07Z"/><path class="cls-32" d="M49.46,11.32a1.57,1.57,0,0,1-.39.17c-.25,0,.5.37.91.57-.41-.2-1.16-.52-.91-.57A1.57,1.57,0,0,0,49.46,11.32Z"/><path class="cls-32" d="M48.9,11.06c0-.09.27-.09-.75-.49l-.32-.23c0-.09,0-.17-.09-.26a4.68,4.68,0,0,1,.54,0c-.35-.18-.23-.25-.72-.49,0-.07.18-.09.42-.09.4.13.84.25,1.43.38h-.09c-.22,0-.36.06-.34.16s.13.22.13.31.47.57.7.86l-.3.07Z"/><path class="cls-32" d="M50.39,9l.45.12-.57.11a4.89,4.89,0,0,1-1.16-.16C49.48,9.06,49.91,9,50.39,9Z"/><path class="cls-30" d="M46.22,30.25a2.43,2.43,0,0,1,.57.16,5.65,5.65,0,0,0,.74.24l.48.41C47.41,30.82,46.77,30.5,46.22,30.25Z"/><path class="cls-30" d="M56.56,32.23c-.12-.19-.9-.7.22-.2a4.39,4.39,0,0,1,.22.41Z"/><path class="cls-30" d="M51.5,27.21l-1.07-1.08-.72-.5c.14,0,.23,0,.36,0l-.1-.2.83.38c-.35-.64.24-.84.67-.94.68.27.34-.28,1.15-.2l.35.22c-.16.16-.29.29.32.94l.35.23.29-.3.17-.17-.19-.12a1.7,1.7,0,0,0,.45-.15l-.44-.46.87.34c-.33-.32.14-.23-.15-.51l.8.13a3.81,3.81,0,0,0,.32.24c-.73-.13,1,.9-.28.31l-.14.16c-.12.06-.27.09-.39.14.09.18.2.38.32.59a4.41,4.41,0,0,1-.6,0,3.08,3.08,0,0,1,.27.38c-.25-.07-.51-.13-.72-.17.19.19,0,.22-.65,0L53.12,26c-.75-.2,0,.32-.11.36s-.35.16-.13.45l-.52.48-.24.23Z"/><path class="cls-30" d="M55.54,24a.66.66,0,0,0,0-.3l.2.11a1.13,1.13,0,0,0,0-.3l-.37-.2.16-.18a2.1,2.1,0,0,1,.48-.2c-.08-.12-.2-.25-.07-.26l.5,0c.22.29.78.61.51.78a2.9,2.9,0,0,0-.5.24l0,0,.12.49-.33.1-.77-.15Z"/><path class="cls-30" d="M61.5,26.4a7,7,0,0,1-.85-.67l.5,0c-.16.06.59.35.8.73Z"/><path class="cls-30" d="M56.79,21.21a3.74,3.74,0,0,0,0-.75c.15-.26.25-.54.39-.79,0-.11-.55-.4-.27-.39l.33-.07c-.06-.29-.13-.58-.2-.87a2.1,2.1,0,0,0,.45-.23l.4.6c-.15.21.51.6-.06.77A3.06,3.06,0,0,1,58,20a6,6,0,0,0,.28.67,3.57,3.57,0,0,1-.52.3c.41.36-.21.27-.44.27a2.28,2.28,0,0,0-.36.1Z"/><path class="cls-30" d="M63.53,22h.21c-.19-.19-.4-.38-.64-.59l.06-.07a8.07,8.07,0,0,0,1.53.09l.77.39-.16.23-.21.31c-.28,0,.28.3,0,.32l-1.37-.33Z"/><path class="cls-34" d="M61.68,20.09l0-.08.21.1c.34-.1-.23-.39-.15-.58s0-.19.53,0c.33-.08-.18-.38-.58-.66.59-.16.19-.71.6-.92s-1.63-.88-2.56-1.27c-.1-.16.65.08.95.11-.07-.14-.14-.27-.22-.4l-.6-.32c0-.1.29-.12-.69-.51l.09-.15-1-.44c.3-.06.39-.2,0-.49a2.16,2.16,0,0,1,0-.27c.9.16,0-.28-.4-.63l0-.08,1.33.32a5.25,5.25,0,0,1-.17-.52,6.74,6.74,0,0,0-.67-.47.94.94,0,0,0-.24-.32l-.6-.19c-.14-.09-.27-.19-.44-.29l0-.37L55.72,11l.05-.09c.78.2.74.14.75.1a3.92,3.92,0,0,0-.84-.28c-.21-.09-.3-.2-.07-.1.38.08,1,.18.93,0s-.14-.19-.2-.28c.2-.09.18-.16.18-.23l0-.28.42.11a1.42,1.42,0,0,0,.25.23l1.08.25.08,0,.18.17.07,0c.17.2.34.38.47.54l.12.11.31.33a4,4,0,0,1,.65.36l.23.23c-.06.07-.08.15-.15.22a2.64,2.64,0,0,0,.78.74l1.05.24a4.4,4.4,0,0,0-.42-.53,9.55,9.55,0,0,0,1.45.75l.56.42a4.24,4.24,0,0,1,.46.4,1.13,1.13,0,0,1,.37.57,8.53,8.53,0,0,1,.49.71c.08-.34.82-.09,1.25,0l.57.29-.58.1,1.48.5c0,.1.06.19.11.29l-.68-.18c.2.47-1.48,0-.75.49l.22.07-.19.33.2.46,1,.42-.34.58-1.74-.45c-.72-.38.39-.3-.81-.76L64,17.81c0,.1-.2.15.29.39,0,.47,0,.83,0,1.23l-.3.46c-.08.05-.21.08-.29.12s0,.28-.06.41l-.54.06,0,.06c-.08.05.28.24-.39.17C62.49,20.57,62.23,20.48,61.68,20.09Z"/><path class="cls-30" d="M63.38,20.64l.16-.22c0-.13,0-.28.06-.41l1.09.31-.8-.43.3-.46,1.31.39a.63.63,0,0,1,.11.24c0,.19-.07.36-.09.56l0,0a2.72,2.72,0,0,0-.08.51c-.25,0-.45.11-.65.16Z"/><path class="cls-30" d="M57.49,17.45c.83-.17.64-.53.13-1C58.13,16.92,58.32,17.28,57.49,17.45Z"/><path class="cls-31" d="M64.69,17.89c1.2.46.09.38.81.76l1.74.45a.88.88,0,0,1,.09.29c-.15,0-.3,0-.48-.08l-1-.4c-.34.11.63.52.2.52a3.07,3.07,0,0,1-.52.39l-1.31-.39c0-.4,0-.76,0-1.23-.49-.24-.3-.29-.29-.39Z"/><path class="cls-30" d="M66,19.43c.43,0-.54-.41-.2-.52l1,.4-.23.36Z"/><path class="cls-30" d="M57,15.51c.13,0,.23-.11.36-.16l.39.15c.13.13.46.29-.18.27Z"/><path class="cls-30" d="M54.61,14.05l1.2.12,0,0a.89.89,0,0,1-.06-.3l-1-.44c-.18-.29-1.15-.76-.92-1-.93-.27.26-.16-1-.5-.58-.42-.19-.5.09-.63a5.3,5.3,0,0,0,.52-.17c.13-.07.14-.18,0-.34.08-.07.39-.09.19-.21a9.76,9.76,0,0,1-1.12-.15L52,10.27a1.25,1.25,0,0,1,.24-.21l.64.08,1,.33c.76.46,1.28.76,1.17.94a3.46,3.46,0,0,0,.43.41l.54-.11,1.14.35c.17.1.3.2.44.29a.63.63,0,0,1,0,.24,1.28,1.28,0,0,1-.38.13c.12.24.51.52.52.74l.22.07,0,.08-.25.41a.7.7,0,0,1,.09.28l-.3,0a1,1,0,0,1,.06.32c.07.05.1.09.17.15a3.4,3.4,0,0,0-.34.12l-.61-.23-.77,0Z"/><path class="cls-31" d="M64.94,15.78a8.53,8.53,0,0,0-.49-.71,1.13,1.13,0,0,0-.37-.57,4.24,4.24,0,0,0-.46-.4l-.56-.42a9.55,9.55,0,0,1-1.45-.75,4.4,4.4,0,0,1,.42.53L61,13.22a2.64,2.64,0,0,1-.78-.74c.07-.07.09-.15.15-.22L60.12,12a4,4,0,0,0-.65-.36l-.31-.33.86.32-.42-.36-.06-.05.32.09.67.18c.46.08.38,0,.65.09l.7.36a.91.91,0,0,1-.26.06,8,8,0,0,0,1.67,1l.78.22,1.32.9,1.72,1.06c.81.39,1,.61.8.69s-.22.27-.1.48l-.15.26-1.48-.5.58-.1-.57-.29C65.76,15.69,65,15.44,64.94,15.78Z"/><path class="cls-30" d="M64.07,13.25,63.29,13a8,8,0,0,1-1.67-1,.91.91,0,0,0,.26-.06l1.08.61A7.79,7.79,0,0,1,64.07,13.25Z"/><path class="cls-30" d="M59.16,11.34,59,11.23c-.13-.16-.3-.34-.47-.54l1,.56.06.05.42.36Z"/><path class="cls-30" d="M60.53,11.52l-.67-.18a2,2,0,0,0-.3-.38l.4.15,1.22.5C60.91,11.51,61,11.6,60.53,11.52Z"/><path class="cls-30" d="M58.24,10.45c-.44-.36-.87-.61-1-.77l.13,0,.38.17a4.3,4.3,0,0,1,.37.31c.08.09.14.18.21.27Z"/><path class="cls-33" d="M47.53,30.65l.47,0,.25.06.3.29a.66.66,0,0,1-.15.22L48,31.06Z"/><path class="cls-33" d="M53,26.34c.11,0-.64-.56.11-.36l.45.44A4.43,4.43,0,0,1,53,26.34Z"/><path class="cls-33" d="M50.14,9.82c.2-.08,0-.26-.33-.43l-1.1-.32.4,0a4.89,4.89,0,0,0,1.16.16l.57-.11.69.16c.88.17.68.21.43.26s-.59.07.12.24l.29-.09a5.56,5.56,0,0,0,.87.17l.21.09-.51.15-.07,0-.64-.08a3.26,3.26,0,0,0-1.53-.14Z"/><path class="cls-33" d="M59.54,11.25l-1-.56-.07,0,1.06.32a2,2,0,0,1,.3.38Z"/><path class="cls-33" d="M53.16,9.24H53.1l.4,0,.67.06-.62.1Z"/><path class="cls-31" d="M63.6,20c.08,0,.21-.07.29-.12l.8.43Z"/><path class="cls-31" d="M66.57,18.1l-.2-.46.19-.33-.22-.07c-.73-.52,1,0,.75-.49l.68.18c.24.41.54.71.25.85l-.44.74Z"/><path class="cls-31" d="M60.92,15.33l.14-.22.91.13c.39-.1.21-.34.05-.55s-.32-.43.38-.4l.44.14c-.1.14,0,.32.07.53s-.2.65-.51.89Z"/><path class="cls-31" d="M57.74,13.46c0-.22-.4-.5-.52-.74a1.28,1.28,0,0,0,.38-.13.63.63,0,0,0,0-.24l.6.19a.94.94,0,0,1,.24.32,6.74,6.74,0,0,1,.67.47,5.25,5.25,0,0,0,.17.52L58,13.53Z"/><path class="cls-31" d="M55.49,11.82c-.75-.38-.67-.41-.43-.41.11-.18-.41-.48-1.17-.94l.61-.12.45.08.66.19c-.23-.1-.14,0,.07.1a3.92,3.92,0,0,1,.84.28s0,.1-.75-.1l-.05.09,1.43.7,0,.37L56,11.71Z"/><path class="cls-31" d="M54.69,10l.09-.06a1.62,1.62,0,0,1-.32-.34l.06,0c.18-.07.31-.16.52-.23a6.34,6.34,0,0,0,.69-.17h.05a1.49,1.49,0,0,0,.37-.05.63.63,0,0,0,.22.29l.05-.06-.05-.13c0-.17.07-.06.13-.06a3.38,3.38,0,0,0,.32.23,1.21,1.21,0,0,0,.41.25c.14.16.57.41,1,.77l-1.08-.25a1.42,1.42,0,0,1-.25-.23l-.42-.11,0,.28c0,.07,0,.14-.18.23l-.11,0-.63-.14h-.4Z"/><path class="cls-31" d="M52.43,9.08,52.89,9l.61.16-.4,0Z"/><path class="cls-34" d="M62.35,23.23l-.93-.94,0,0,.47.13,1.16.56-.32.43Z"/><path class="cls-34" d="M52.87,10.14l.07,0,.51-.15.54.12.51.26-.61.12Z"/><path class="cls-34" d="M53.49,9.55l.16,0H54l.42.11a1.62,1.62,0,0,0,.32.34l-.09.06-.11,0-1.1-.22A1.55,1.55,0,0,1,53.49,9.55Z"/><path class="cls-32" d="M49.41,9.87a.43.43,0,0,1-.09-.2l-1.44-.4.82,0s-.29-.13-.32-.19l.2,0h.13l1.1.32c.37.17.53.35.33.43l.56.1.42-.05c.06-.11.72.06,1.11.19a1.25,1.25,0,0,0-.24.21l.55.16s0,.08-.1.12-.32.08-.74,0-.92-.13-.88,0a4.58,4.58,0,0,1-.8-.32.23.23,0,0,1,0-.21Z"/><path class="cls-28" d="M47.88,9.27l-1-.29,1.45.12c0,.06.33.14.32.19Z"/><path class="cls-29" d="M43.32,20.7l.15-.12C43.38,20.59,44.15,21,43.32,20.7Z"/><path class="cls-29" d="M46.13,9.25c-.39-.18-.76-.37-.57-.4a2.18,2.18,0,0,1,.55,0l.82.11,1,.29c-.44,0-1.09-.1-1.35-.07A.77.77,0,0,0,46.13,9.25Z"/><path class="cls-32" d="M51.62,12.73c-.56-.37-.51-.43-.47-.5C53,12.76,52.44,12.88,51.62,12.73Z"/><path class="cls-32" d="M48.18,25.55c.23.1.45.2.64.27.34.3.92.74.6.67a2.13,2.13,0,0,0-.33,0C48.34,25.93,49,26.19,48.18,25.55Z"/><path class="cls-30" d="M56.37,22.71c.09,0-.3-.28-.46-.43l.33-.05-.43-.53.46.14c-.28-.29.09-.31.11-.48a5.45,5.45,0,0,0,.56,0c0,.06.3.28.48.42l-.37.45c0,.05-.09.11-.6.1C56.43,22.43,56.93,22.74,56.37,22.71Z"/></g></g></g></g><path class="cls-42" d="M26.83,11.5l-.06-.07"/><path class="cls-43" d="M26.7,11.36c-.65-.75-3.18-3.86-3.69-4.5"/><path class="cls-42" d="M23,6.82l-.06-.07"/><line class="cls-42" x1="29.08" y1="45.25" x2="29.02" y2="45.33"/><line class="cls-44" x1="28.96" y1="45.41" x2="24.34" y2="51.71"/><line class="cls-42" x1="24.31" y1="51.75" x2="24.25" y2="51.83"/><line class="cls-42" x1="54.08" y1="45.25" x2="54.08" y2="45.35"/><line class="cls-45" x1="54.08" y1="45.45" x2="54.08" y2="52.1"/><line class="cls-42" x1="54.08" y1="52.15" x2="54.08" y2="52.25"/><line class="cls-42" x1="52.08" y1="12.75" x2="52.11" y2="12.65"/><line class="cls-46" x1="52.13" y1="12.56" x2="53.55" y2="6.89"/><line class="cls-42" x1="53.56" y1="6.85" x2="53.58" y2="6.75"/><text class="cls-47" transform="translate(0 5.83)">重金属</text><text class="cls-48" transform="translate(50.64 5.83)">可挥发性有机物</text><text class="cls-49" transform="translate(0 57.17)">半挥发性有机物</text><text class="cls-50" transform="translate(50.64 57.17)">其他污染物</text></g></g></svg>